<svg width="51" height="51" viewBox="0 0 51 51" fill="none" xmlns="http://www.w3.org/2000/svg">
<path d="M51 25.5C51 39.5833 39.5833 51 25.5 51C11.4167 51 0 39.5833 0 25.5C0 11.4167 11.4167 0 25.5 0C39.5833 0 51 11.4167 51 25.5Z" fill="white"></path>
<path d="M20.11 19.96L29.13 16.95C33.18 15.6 35.38 17.81 34.04 21.86L31.03 30.88C29.01 36.95 25.69 36.95 23.67 30.88L22.78 28.2L20.1 27.31C14.04 25.3 14.04 21.99 20.11 19.96Z" fill="#EF0002"></path>
<path d="M25.12 25.63L28.93 21.81Z" fill="white"></path>
<path d="M25.1201 26.38C24.9301 26.38 24.7401 26.31 24.5901 26.16C24.3001 25.87 24.3001 25.39 24.5901 25.1L28.3901 21.28C28.6801 20.99 29.1601 20.99 29.4501 21.28C29.7401 21.57 29.7401 22.05 29.4501 22.34L25.6501 26.16C25.5001 26.3 25.3101 26.38 25.1201 26.38Z" fill="white"></path>
</svg>
