<svg width="57" height="57" viewBox="0 0 57 57" fill="none" xmlns="http://www.w3.org/2000/svg">
<path d="M0.962752 47.0353C0.6299 47.6765 0.293525 48.3739 0.390622 49.0847C0.474132 49.8032 1.1642 50.4903 1.86721 50.3135C6.35274 49.1985 10.7931 47.866 15.1581 46.3422C16.9452 45.7253 18.763 45.0369 20.1769 43.7951C20.5464 44.305 21.3645 43.9992 21.8842 43.6477C22.8122 43.0175 23.7509 42.3903 24.6789 41.7601C25.1704 41.8576 25.4237 40.9553 24.9386 40.7911C25.11 40.4946 25.6043 40.5814 25.8048 40.8634C26.0053 41.1454 25.9999 41.5092 26.0216 41.8574C26.1925 45.5553 29.2067 48.4288 30.7264 51.8148C31.1929 52.8642 31.5263 53.9807 32.2072 54.9164C32.8774 55.8493 34.006 56.574 35.1353 56.3515C36.1809 56.141 36.9113 55.2182 37.4528 54.3133C39.146 51.5143 40.0971 48.2653 40.1812 44.9895C39.4438 47.0973 38.7172 49.2081 37.9692 51.3131C38.4901 48.7249 39.0004 46.1339 39.5213 43.5458C39.7657 42.333 40.3161 40.837 41.5614 40.7827C41.3375 39.7297 42.7254 39.1429 43.789 38.9942C43.1863 39.4833 42.5837 39.9724 41.9782 40.4721C43.9204 39.7485 45.816 38.8983 47.625 37.8993C47.9482 37.7234 48.2907 37.5184 48.4571 37.1978C48.6621 36.819 48.5967 36.3335 48.8124 35.9576C49.0281 35.5818 49.7878 35.5799 49.7438 36.0018C49.3089 36.0793 48.9838 36.5628 49.085 37.0008C51.7507 35.8091 54.2001 34.1372 56.2565 32.086C54.8006 30.7372 54.1735 28.1838 52.1941 27.973C48.2997 27.5686 44.4238 27.0094 40.5663 26.2954C43.4004 18.7233 45.2085 10.7735 45.9164 2.72301C44.481 6.83513 43.4205 11.0934 42.7606 15.4019C42.6951 15.818 42.3851 16.3741 42.0109 16.1825C43.2073 11.1161 44.323 6.05096 45.3879 0.960752C45.6082 0.996966 45.8393 1.03605 46.0596 1.07227C46.2633 0.784443 46.1864 0.341566 45.8959 0.138167C45.8637 0.12954 45.8315 0.120914 45.7993 0.112288C44.93 -0.12063 43.9854 0.356709 43.3801 1.02765C42.7447 1.72479 42.3734 2.59541 41.874 3.38605C41.0488 4.70571 39.8851 5.78627 38.7564 6.86483C33.5127 11.8397 28.5689 17.1117 23.628 22.3731C22.9518 23.0936 22.2258 24.086 22.6786 24.972C20.7746 21.346 16.2901 20.0531 12.2987 19.1092C11.5848 18.9407 10.8007 18.7763 10.1543 19.1281C8.95952 19.7666 9.15682 21.52 9.57123 22.8066C10.5907 25.9559 11.9027 29.0009 13.4807 31.9117C13.7271 32.3658 13.93 33.0251 13.5082 33.3115C8.24974 36.753 3.90068 41.5225 0.967788 47.0594L0.962752 47.0353ZM11.0377 41.2435C11.0694 41.4689 10.9072 41.6879 10.7378 41.8479C10.6825 41.582 10.6301 41.3055 10.5748 41.0396L10.534 41.0629C10.6555 40.8672 11.0061 41.0182 11.0485 41.2464L11.0377 41.2435ZM9.62261 41.8459L9.62845 41.9958C9.7189 42.4309 9.20632 42.8414 8.79852 42.7321C8.75559 42.7206 8.71269 42.7091 8.66474 42.6735C8.86975 42.2947 9.21642 41.9881 9.62261 41.8459ZM9.69492 38.099C9.81297 38.1306 9.75305 38.3542 9.63215 38.3332C9.5141 38.3016 9.57402 38.078 9.69492 38.099ZM7.554 43.8139C7.74525 44.1733 7.33649 44.6686 6.93942 44.5622L6.89866 44.5856C6.96454 44.6831 6.81223 44.7793 6.71564 44.7534C6.68345 44.7447 6.66486 44.7284 6.65196 44.6907C6.95002 44.3939 7.25594 44.1106 7.554 43.8139ZM6.44354 45.2968L6.47002 45.3267C6.40768 45.173 6.72951 45.0881 6.75395 45.2544C6.54081 45.2772 6.44012 45.5241 6.29217 45.6899C6.14423 45.8557 5.76511 45.8112 5.8329 45.6011C5.99158 45.4382 6.21681 45.3273 6.44354 45.2968ZM2.34774 49.164C2.25959 48.9349 2.28801 48.6572 2.41232 48.4508C2.55456 48.3063 2.84999 48.3627 2.92524 48.554C2.73369 48.7538 2.53931 48.9642 2.35849 49.1668L2.34774 49.164ZM18.9952 43.7409C18.8771 43.7093 18.937 43.4857 19.0579 43.5067C19.1624 43.5461 19.1053 43.7591 18.9952 43.7409ZM20.7271 43.0295C20.6305 43.0036 20.5561 42.938 20.5739 42.8286L20.9837 42.8015L21.0696 42.8245C21.0776 43.0093 20.8773 43.0697 20.7271 43.0295ZM22.2697 42.5526C22.0659 42.6692 21.7924 42.4019 21.8845 42.1869C21.9766 41.9719 22.3057 41.9459 22.4675 42.1148L22.5247 42.0731C22.4652 41.9088 22.8371 41.8943 22.805 42.0569C22.5696 41.9482 22.5034 42.4098 22.2725 42.5419L22.2697 42.5526ZM37.5837 52.4081C37.5045 52.6608 37.3044 52.8925 37.3597 53.1584L37.3704 53.1613C37.2691 53.4537 36.991 53.6759 36.6942 53.7105C36.7531 53.1899 36.8658 52.6837 37.0134 52.1755C37.0505 52.037 37.112 51.8937 37.25 51.8508C37.5017 51.7699 37.6765 52.1477 37.5866 52.3975L37.5837 52.4081ZM39.9097 39.7352C39.9097 39.7352 39.8561 39.7208 39.8239 39.7122C40.1275 39.2229 40.8706 39.0682 41.3451 39.4008C40.9655 39.7442 40.4034 39.8675 39.9097 39.7352ZM43.02 38.0007C42.9127 37.9719 42.9619 37.7454 43.0828 37.7664C43.2008 37.798 43.1409 38.0217 43.02 38.0007ZM43.9568 37.681C43.8163 37.3467 44.0141 36.9089 44.366 36.7978C44.5533 36.6996 44.7407 36.6014 44.9387 36.5061C44.8769 37.0374 44.4817 37.525 43.9568 37.681ZM45.7898 38.3092C45.581 38.4016 45.3392 38.3596 45.1082 38.3205L45.046 38.3381C45.2143 38.6115 44.6952 38.9175 44.5269 38.6441C44.3693 38.3736 44.8805 38.0541 45.0517 38.3168C45.203 37.9237 45.6413 37.6188 46.0434 37.7494C46.1508 37.9494 45.9879 38.2139 45.782 38.2956L45.7898 38.3092ZM45.498 36.3935C45.6161 36.4251 45.5562 36.6487 45.4353 36.6277C45.3172 36.5961 45.3771 36.3725 45.498 36.3935ZM46.6498 37.5467C46.5438 37.427 46.5387 37.2316 46.6294 37.1075L46.6187 37.1046C46.7852 36.9552 47.0965 37.0386 47.1553 37.2484C46.9787 37.3495 46.8157 37.4427 46.639 37.5438L46.6498 37.5467ZM49.2226 34.4697L49.0903 34.4913C49.0654 34.7129 49.032 34.9665 48.8575 35.1023C48.7839 35.1625 48.6652 35.1764 48.5686 35.1505C48.4506 35.1188 48.3575 35.0368 48.3674 34.914C48.3738 34.8472 48.426 34.7813 48.4646 34.7231C48.709 34.412 49.012 34.1394 49.3387 33.9074C49.5034 34.0656 49.4285 34.388 49.2119 34.4669L49.2226 34.4697ZM55.0092 32.2768C55.2525 32.399 55.2514 32.8324 54.986 32.9211L55.0491 33.0293C54.9597 33.0624 54.8788 33.0636 54.7822 33.0377C54.5998 32.9888 54.4538 32.847 54.4458 32.6622C54.4256 32.3943 54.7551 32.1516 54.9984 32.2739L55.0092 32.2768ZM53.5455 33.0601C53.7258 33.0742 53.8919 33.3127 53.7633 33.4495C53.6346 33.5862 53.3613 33.4901 53.2405 33.6404C52.6095 34.4071 51.8374 35.0563 50.968 35.5537C50.8186 35.6392 50.5969 35.6939 50.4466 35.6537C50.3608 35.6307 50.2942 35.5786 50.2741 35.4819C51.2063 34.7502 52.1278 34.0156 53.06 33.2838C53.2044 33.1742 53.3652 33.0461 53.5562 33.063L53.5455 33.0601ZM51.6988 28.4908C51.9035 28.6712 51.6205 29.0405 51.3844 28.9773C51.3522 28.9686 51.32 28.96 51.2935 28.9301C51.0487 28.7275 51.4704 28.2699 51.688 28.488L51.6988 28.4908ZM42.8547 16.8537C42.9728 16.8853 42.9128 17.109 42.7919 17.088C42.6739 17.0563 42.7338 16.8327 42.8547 16.8537ZM41.6345 17.9306L41.6824 17.9662C41.8047 17.8963 41.9241 17.837 42.0464 17.767C42.154 18.1382 42.0398 18.5642 41.7718 18.8347C41.4755 18.6526 41.4044 18.1884 41.6374 17.9199L41.6345 17.9306ZM40.7232 22.6624C40.7506 22.0877 40.786 21.5266 40.8134 20.9519C40.8212 20.7941 40.8318 20.6258 40.9304 20.5153C41.0319 20.3941 41.2479 20.3606 41.3295 20.4852C41.3796 20.5557 41.3619 20.6651 41.3498 20.7532C41.2401 21.42 41.0231 22.058 40.7124 22.6596L40.7232 22.6624ZM40.5109 23.8838C40.4966 23.9371 40.4237 23.9518 40.37 23.9374C40.3164 23.923 40.2713 23.8767 40.2748 23.8206C40.3062 23.7034 40.5316 23.7638 40.5109 23.8838ZM39.8826 24.4687C40.1495 24.6316 40.2764 24.9737 40.1857 25.269C40.0951 25.5643 39.7984 25.7701 39.4916 25.7563L39.4986 25.6441C39.5506 25.2357 39.694 24.8291 39.8933 24.4716L39.8826 24.4687ZM35.9602 12.4498C36.1245 12.0944 36.4031 11.6554 36.798 11.727C36.6783 12.3455 36.2338 12.8883 35.6589 13.1452C35.7567 12.9089 35.8624 12.6861 35.9709 12.4527L35.9602 12.4498ZM33.9487 15.2777C34.7705 15.087 34.5983 13.4545 35.4417 13.4408C35.0256 14.7787 34.1725 15.9882 33.0551 16.8529C32.9379 16.947 32.7669 17.0268 32.6382 16.9923C32.5952 16.9808 32.563 16.9721 32.5394 16.9316C32.4599 16.8418 32.4863 16.7005 32.5256 16.5969C32.7425 15.9588 33.3023 15.4583 33.9538 15.3019L33.9487 15.2777ZM33.6743 14.5422C33.6743 14.5422 33.6035 14.5917 33.5713 14.5831C33.4747 14.5572 33.3852 14.4191 33.4724 14.3511L33.4509 14.3454C33.2076 14.2231 33.0694 13.9236 33.1514 13.6602C33.3112 13.9655 33.4845 14.2631 33.685 14.5451L33.6743 14.5422ZM29.9473 20.0376C30.2939 19.5598 30.654 19.0742 31.0113 18.5993C31.1216 18.7886 31.056 19.0336 30.9668 19.2379C30.7297 19.7793 30.3559 20.2726 29.9006 20.6413C29.7002 20.5306 29.818 20.2198 29.9473 20.0376ZM30.7025 16.9187C30.626 16.9895 30.5045 17.014 30.3971 16.9853C30.2898 16.9565 30.1939 16.8852 30.1659 16.775C30.3325 16.6256 30.633 16.7061 30.7025 16.9187ZM29.0018 21.1195C29.1068 20.9422 29.3314 20.8769 29.5367 20.8406C29.6813 21.0733 29.4634 21.4144 29.2023 21.4015L29.2596 21.531C29.2596 21.531 29.1867 21.5457 29.1545 21.5371C29.015 21.4997 28.9161 21.2678 28.999 21.1302L29.0018 21.1195ZM27.5979 22.4097C27.7209 22.2942 27.8466 22.1682 28.014 22.1445C28.1814 22.1209 28.3789 22.2423 28.3576 22.4078C28.0943 22.3601 27.9014 22.6508 27.7313 22.8563C27.6105 23.0065 27.3774 23.1038 27.2164 23.0607C27.152 23.0435 27.0962 22.9943 27.0704 22.9189C27.2427 22.7482 27.4257 22.5804 27.6008 22.399L27.5979 22.4097ZM26.6936 23.0804C26.6622 23.1975 26.4368 23.1371 26.4575 23.0171C26.486 22.9106 26.7142 22.9604 26.6936 23.0804ZM23.0601 26.2954C23.1625 26.4712 23.2649 26.647 23.3674 26.8228L23.3459 26.8171C23.3868 26.965 23.2874 27.121 23.1523 27.1532C22.8503 26.9924 22.7956 26.5098 23.0629 26.2847L23.0601 26.2954ZM10.7634 20.5467C10.7919 20.4402 11.0201 20.4899 10.9995 20.6099C10.9681 20.7271 10.7427 20.6667 10.7634 20.5467ZM16.6717 36.8298C17.2263 36.1338 17.8015 35.3179 17.6935 34.433C16.8264 35.1365 15.9071 35.9059 15.5975 36.9757C15.0993 36.6025 15.3269 35.7961 15.7457 35.3491C16.1753 34.9049 16.7566 34.5814 17.0022 34.008C17.3286 33.2623 16.921 32.4227 16.5249 31.7117C14.7521 28.4975 12.9822 25.2727 11.2094 22.0586C15.5127 23.0405 18.8942 26.3889 23.0691 27.85C23.2702 27.9153 23.4819 27.9834 23.6772 27.8988C24.3958 27.5777 23.4661 25.9819 24.2386 25.8465C24.0153 25.6497 23.704 25.5663 23.4122 25.6251C23.8062 25.3996 24.1866 25.182 24.5777 24.9672C24.5536 25.3146 24.5188 25.6591 24.484 26.0036C27.7135 23.8673 30.5504 21.135 32.7956 17.9931C32.4716 18.0433 32.1332 17.9754 31.8476 17.7962C31.9591 17.5522 32.0812 17.311 32.1926 17.0669C32.2621 17.2796 32.454 17.4223 32.6686 17.4798C32.8618 17.5315 33.072 17.5194 33.2508 17.4532C33.6384 17.2945 33.9157 16.9465 34.1658 16.6141C36.4974 13.4497 38.5786 10.1041 40.3578 6.59772C40.7522 6.886 40.6274 7.48029 40.4697 7.9402C38.6767 13.0864 37.6206 18.4871 37.345 23.9372C37.2872 25.0972 37.3004 26.379 38.0192 27.302C38.7803 28.2821 40.1117 28.5932 41.3444 28.8436L52.8417 31.1368C48.9106 33.359 44.9688 35.5783 41.0406 37.7899C40.2827 38.2145 39.5055 38.6682 39.026 39.3843C38.5466 40.1004 38.4902 41.1695 39.128 41.7513C36.3249 44.9149 35.9758 49.6947 33.1463 52.8284C32.8941 51.3228 32.5232 49.831 32.0386 48.3772C31.7119 48.6092 31.65 49.1405 31.912 49.4504C31.2611 49.3901 31.3331 48.1768 31.9769 48.1781C30.7615 46.0606 29.5539 43.9566 28.3356 41.8497C28.1021 41.4333 27.8579 41.0141 27.5207 40.6841C26.2623 39.4567 23.762 40.0307 23.2011 41.6951C22.9661 41.1984 22.2144 41.3851 21.7311 41.6436C17.6397 43.7772 13.3908 45.6403 9.03576 47.2125C7.17791 47.8789 5.31004 48.4968 3.42923 49.0771C3.43387 48.5876 3.89141 48.2537 4.29964 47.975C8.9783 44.9374 13.1564 41.1493 16.6317 36.8077L16.6717 36.8298ZM12.9692 38.5426C13.155 38.3641 13.4175 38.2861 13.6613 38.1916C14.2248 37.9774 14.7281 37.6443 15.1441 37.208C15.3302 37.372 15.2797 37.6894 15.126 37.8765C14.9724 38.0636 14.7285 38.158 14.5062 38.2582C13.942 38.5179 13.4065 38.8424 12.9347 39.2295C12.7378 39.0627 12.7941 38.7239 12.9692 38.5426Z" fill="#EF0002"></path>
</svg>
