<svg width="78" height="75" viewBox="0 0 78 75" fill="none" xmlns="http://www.w3.org/2000/svg">
<path d="M23.1773 67.5268C23.7287 67.9579 24.3632 68.1261 25.0561 68.0729C25.1655 68.0643 25.1641 67.9565 25.1189 67.843C24.9321 67.3817 24.9453 67.3328 25.2866 67.363C25.555 67.386 25.787 67.3846 26.0233 67.2337C26.14 67.159 26.3106 67.1531 26.458 67.1431C26.6345 67.1316 26.7949 67.3888 26.7365 67.5886C26.7088 67.6849 26.6417 67.7682 26.5921 67.8573L26.6111 67.8401C26.56 67.9277 26.5002 68.0111 26.4594 68.1031C26.3821 68.2741 26.4623 68.3489 26.6519 68.3833C26.9874 68.4437 27.2296 68.2137 27.5228 68.149L27.5053 68.1534C27.5724 68.0284 27.6322 67.899 27.711 67.7811C27.8014 67.6475 27.9429 67.6144 28.0858 67.6762C28.3455 67.7912 28.6285 67.8789 28.7904 68.1404L28.7525 68.1749L28.7845 68.1361C28.8837 68.0197 29.0077 67.9148 29.0763 67.7811C29.1419 67.6561 29.2295 67.4377 29.1726 67.373C28.9202 67.0827 28.9187 66.712 28.7787 66.3901C28.7422 66.3067 28.6299 66.1875 28.5657 66.1947C28.4272 66.209 28.2813 66.2765 28.1675 66.3613C28.0946 66.4145 28.0683 66.5338 28.0246 66.6258C27.9531 66.7753 27.8277 66.8887 27.6716 66.8643C27.1625 66.7824 26.6548 66.6904 26.156 66.5625C25.9678 66.5136 25.7972 66.3685 25.6411 66.2406C25.5769 66.1875 25.5375 66.0581 25.552 65.9734C25.5666 65.8886 25.6455 65.775 25.7228 65.7463C25.8628 65.6931 26.0247 65.6989 26.1764 65.6715C26.3617 65.6371 26.4244 65.4818 26.3048 65.3439C26.2056 65.2289 26.0874 65.1283 25.9751 65.0249C25.8861 64.9429 25.8643 64.8495 25.9328 64.7475C25.9591 64.7072 26.0087 64.657 26.051 64.6541C26.6651 64.6081 27.2646 64.588 27.8685 64.8179C28.5366 65.0709 29.266 65.1628 29.813 65.5925C29.9793 65.4631 30.0828 65.4171 30.1338 65.3381C30.322 65.0507 30.5904 64.9243 30.923 64.9588C31.9003 65.0594 32.8908 65.1053 33.8477 65.3022C34.8454 65.5077 35.7922 65.3913 36.7549 65.1872C37.1064 65.1125 37.4638 65.0263 37.8212 65.0162C39.029 64.9832 40.1508 64.6498 41.2462 64.1741C41.5234 64.0534 41.8355 63.9743 42.1375 63.9542C42.8727 63.9053 43.5437 63.6495 44.2176 63.3952C44.3008 63.3635 44.3635 63.2573 44.416 63.1739C44.4714 63.0848 44.2774 63 44.0775 63.0287C44.0265 63.0359 43.9726 63.0302 43.923 63.0445C43.2184 63.2543 42.4934 63.2458 41.7685 63.2486C39.9072 63.2544 38.0444 63.2586 36.1831 63.2601C35.9278 63.2601 35.6667 63.2702 35.4173 63.1294C35.5019 63.0862 35.5734 63.0158 35.6478 63.0144C36.9402 62.9856 38.2325 62.9784 39.5249 62.9367C40.0909 62.9195 40.6554 62.8434 41.22 62.7816C41.7334 62.7255 42.2469 62.6652 42.7574 62.5818C43.3686 62.4827 43.9784 62.3677 44.5837 62.2369C44.7792 62.1938 44.995 62.1147 45.138 61.984C45.4983 61.6563 45.9097 61.4968 46.3896 61.4451C46.9687 61.3818 47.4778 61.1217 47.9592 60.8185C48.7439 60.3256 49.5476 59.8528 50.2828 59.2938C51.797 58.1427 53.2747 56.9441 54.7581 55.7557C54.9565 55.5976 55.1097 55.3849 55.2876 55.1995C55.5006 54.9782 55.7034 54.7425 55.9353 54.5413C56.5188 54.0383 57.1606 53.5943 57.6945 53.0454C58.2269 52.4964 58.6368 51.8353 59.1313 51.249C60.6294 49.467 61.8401 47.5269 62.6045 45.3296C62.94 44.3667 63.2682 43.4039 63.4286 42.3908C63.5162 41.8418 63.5818 41.2742 63.9086 40.7913C63.9319 40.7569 63.9975 40.7367 64.0457 40.7338C64.0821 40.7324 64.1376 40.764 64.1522 40.7956C64.1915 40.8862 64.2383 40.9853 64.2383 41.0802C64.2368 41.3345 64.2499 41.5961 64.1915 41.8404C63.8473 43.2746 63.7292 44.7634 63.1296 46.1373C63.1063 46.1919 63.1734 46.3428 63.2288 46.36C63.3119 46.3859 63.4564 46.3687 63.5118 46.3126C64.2791 45.5193 64.7357 44.6068 64.7984 43.4772C64.8451 42.6193 64.9472 41.7484 65.2841 40.9336C65.4096 39.6258 65.8735 38.3454 65.6153 37.006C65.5628 34.9596 65.1251 32.9649 64.7313 30.9703C64.546 30.0304 64.1726 29.1236 63.5585 28.3447L63.5818 28.3691C63.5323 28.1234 63.5016 27.8691 63.2521 27.7239L63.2769 27.7512C63.2653 27.2296 63.0698 26.7553 62.8422 26.3041C62.4076 25.4418 61.9378 24.5983 61.4754 23.7504C61.4039 23.6182 61.3121 23.4917 61.2085 23.381C60.6513 22.7875 60.0868 22.1998 59.5266 21.6092L59.5485 21.6321C59.4362 21.5214 59.3224 21.4094 59.2101 21.2987L59.2364 21.3203C59.1576 20.9596 58.9198 20.6894 58.7068 20.4048C58.2211 19.7524 57.7368 19.0985 57.2365 18.4576C57.0513 18.2191 56.8324 18.0035 56.6107 17.7965C56.0929 17.3108 55.5371 16.8682 55.0688 16.3235C54.7435 15.9441 54.3264 15.6409 53.9559 15.2989C53.9325 15.2773 53.9412 15.1983 53.9602 15.1581C53.9806 15.1164 54.0361 15.056 54.0682 15.0603C54.2184 15.079 54.3804 15.0891 54.5116 15.1537C55.1593 15.4728 55.7136 15.9211 56.2738 16.3666C56.8295 16.8092 57.3269 17.3309 57.976 17.6557L57.9644 17.6342C58.0767 17.7448 58.189 17.8555 58.3013 17.9661L58.2707 17.9446C58.3889 17.9446 58.507 17.9446 58.6252 17.9446L58.6048 17.9633C58.8411 18.061 59.0934 18.1299 59.3064 18.2636C59.5164 18.3944 59.7702 18.5539 59.8577 18.7623C60.2399 19.6705 61.0554 20.2568 61.5557 21.0745C61.8183 21.5057 62.1188 21.9181 62.4368 22.3133C62.7227 22.6697 62.7139 23.0548 62.6541 23.4615L62.638 23.4457C62.8496 23.4428 63.0625 23.4386 63.274 23.4357C63.3717 23.6484 63.468 23.8611 63.5658 24.0737L63.611 24.1168L63.5628 24.0694C63.4768 23.8553 63.4855 23.5952 63.2521 23.4544C63.2507 22.7789 62.9094 22.2026 62.6687 21.6019C62.5986 21.4295 62.4178 21.2973 62.2792 21.1535C62.0356 20.8992 61.7789 20.6563 61.5411 20.3977C61.3179 20.1562 61.3091 19.853 61.3354 19.5483L61.4303 19.4348C61.5222 19.4305 61.6125 19.442 61.7001 19.4722C61.808 19.5714 61.9072 19.6849 62.0298 19.761C62.091 19.7998 62.2442 19.8013 62.2734 19.761C62.3171 19.7007 62.3215 19.5713 62.2836 19.5038C62.2135 19.3816 62.0998 19.2825 62.005 19.1733C61.7862 18.8269 61.4113 18.7076 61.0656 18.5453L61.0976 18.5812C60.9036 17.8339 60.5565 17.1556 60.1028 16.5305C59.8053 16.1209 59.4012 15.9513 58.8907 16.0577C58.79 16.0778 58.6864 16.0879 58.5843 16.1037L58.6091 16.1266C58.7243 15.6366 58.7987 15.1451 58.4909 14.6924C58.3334 14.4582 58.4983 14.2067 58.4224 13.9768C58.3962 13.8977 58.3042 13.8043 58.2255 13.7827C58.084 13.7454 57.9279 13.7382 57.782 13.7554C57.4261 13.7986 57.2306 13.5744 57.0264 13.3531L57.0993 13.3057L57.0498 13.3775C56.9097 13.1145 56.7668 12.853 56.6326 12.5886C56.4532 12.2336 56.2811 11.8743 56.106 11.5165L56.0782 11.5381C56.9812 11.8197 57.7543 12.2825 58.4078 12.978C58.93 13.5327 59.5354 14.0026 60.3085 14.2254C60.6542 14.3245 60.9416 14.5516 61.1618 14.8577C61.3135 15.0689 61.528 14.9583 61.7191 14.8864L61.7001 14.9066C61.792 14.9468 61.8868 14.9828 61.9758 15.0287C62.2398 15.1667 62.4571 15.0948 62.6482 14.8936L62.6308 14.9109C62.8627 15.0704 63.1077 15.2156 63.3222 15.3938C63.5016 15.5432 63.6328 15.7516 63.8852 15.8033C63.8867 16.0145 63.8867 16.2244 63.8881 16.4357C63.7904 16.417 63.6941 16.3897 63.595 16.3825C63.5731 16.381 63.5191 16.4715 63.5264 16.4801C63.6766 16.654 63.7656 16.5075 63.8633 16.4112C63.9727 16.4097 64.0807 16.4097 64.1901 16.4083L64.1711 16.427C64.1434 16.1885 64.1084 15.9528 63.8692 15.8134C63.875 15.6079 63.8809 15.4009 63.8867 15.1954L63.8677 15.2127C64.0588 15.1422 64.2557 15.0819 64.441 14.9971C64.581 14.9324 64.6657 14.7197 64.6 14.6077C64.4731 14.3892 64.3301 14.1779 64.1945 13.9653L64.2105 13.9811C64.0923 13.9811 63.9742 13.9796 63.8561 13.9796L63.8663 13.9653C63.503 13.7698 63.2784 13.481 63.2507 13.0628L63.2872 13.0254L63.2536 13.0714C62.9225 12.8444 62.6001 12.6058 62.2603 12.3917C61.9919 12.2235 61.792 12.0109 61.6753 11.7206C61.3646 10.9503 60.8424 10.3525 60.167 9.86528C59.7994 9.59942 59.4668 9.28614 59.1342 9.00879C58.7696 9.03178 58.9577 9.31487 58.8731 9.45858C58.7798 9.61666 58.4632 9.69141 58.3392 9.56208C58.2357 9.4543 58.1117 9.33933 58.0738 9.20568C58.0052 8.96713 57.995 8.71271 57.9614 8.46553L57.9819 8.48567C57.4801 8.48423 56.9783 8.49141 56.478 8.47416C56.3175 8.46841 56.211 8.33623 56.1891 8.17959C56.1775 8.08761 56.1818 7.95254 56.2387 7.9008C56.494 7.66799 56.7697 7.45673 57.0381 7.23829L57.022 7.25124C56.8455 7.15926 56.6749 7.05002 56.4896 6.97817C56.2431 6.88188 56.0593 6.7382 55.9426 6.49964C55.7472 6.10014 55.5852 5.67474 55.1928 5.40601L55.1753 5.42327C55.8842 5.44626 56.4765 5.73941 56.9579 6.22945C57.2875 6.56573 57.6362 6.82871 58.1 6.97242C58.8644 7.20666 59.4508 7.69669 59.887 8.35487C60.0051 8.53307 60.1436 8.68687 60.3566 8.71274C60.7359 8.75873 61.0072 8.96137 61.2946 9.19418C63.1325 10.6816 64.7415 12.3831 66.1929 14.2326C66.4511 14.5617 66.7341 14.7658 67.1921 14.8434C67.5758 14.908 67.9521 15.1092 68.3576 15.1782C68.4043 15.1854 68.4364 15.3334 68.451 15.4196C68.4568 15.4512 68.3999 15.5102 68.3591 15.5289C68.2686 15.572 68.1723 15.6093 68.0746 15.6251C67.9754 15.6409 67.8689 15.6136 67.7712 15.6338C67.6618 15.6553 67.6152 15.7544 67.6662 15.8636C67.7289 16.0002 67.8062 16.1338 67.901 16.2517C68.7938 17.3683 69.6413 18.5136 70.3414 19.761C70.4392 19.9363 70.5923 20.0815 70.7192 20.2411C70.9293 20.504 71.1875 20.583 71.5318 20.5399C71.8002 20.5069 71.9693 20.6707 71.9008 20.8949C71.8133 21.1809 71.8818 21.3979 72.0539 21.5919C72.2217 21.7802 72.4478 21.9181 72.6083 22.1121C72.6929 22.2142 72.7527 22.4067 72.7147 22.5245C72.617 22.8349 72.6856 23.1137 72.7395 23.417C72.7906 23.7044 72.7176 24.0105 72.7074 24.3094C72.7059 24.3539 72.7512 24.4 72.7672 24.4474C72.811 24.5724 73.005 24.6586 73.1524 24.5997C73.2938 24.5436 73.4354 24.4847 73.5769 24.4273L73.552 24.4143C73.6643 24.6988 73.8467 24.9202 74.1428 25.0294C74.3427 25.1027 74.4492 25.2579 74.5498 25.4303C74.6534 25.6071 74.5673 25.8902 74.3878 25.8988C74.0932 25.9146 73.7971 25.916 73.5024 25.9232L73.4368 25.8457L73.5155 25.9118C73.5637 26.1043 73.5841 26.3084 73.6658 26.4851C73.7781 26.728 73.9765 26.8703 74.277 26.8545C74.4302 26.8459 74.6154 26.9177 74.6227 27.0786C74.6505 27.6722 75.0924 28.0774 75.317 28.6379C75.2295 29.036 75.1347 29.4757 75.0384 29.9169L75.0574 29.8939C75.0093 29.8781 74.9611 29.8609 74.913 29.8465C74.8196 29.8163 74.7204 29.7574 74.6329 29.7703C74.5935 29.776 74.5381 29.9342 74.5556 30.0075C74.6009 30.2015 74.6796 30.3883 74.7496 30.5765C74.8546 30.8596 74.9626 31.1398 75.0705 31.4229L75.0516 31.4043C75.3069 31.3942 75.5636 31.3511 75.8086 31.4805C75.9895 31.5768 76.1514 31.8167 76.1047 31.9676C75.9691 32.403 75.8495 32.8471 75.6744 33.2682C75.603 33.4421 75.3856 33.5513 75.2776 33.718C75.2033 33.833 75.1347 34.0313 75.1858 34.129C75.4658 34.6679 75.778 35.1895 76.096 35.7069C76.1222 35.7486 76.2987 35.75 76.3688 35.7098C76.821 35.4425 76.9946 34.9194 77.4001 34.609C77.4599 34.563 77.6685 34.5817 77.6802 34.6148C77.8012 34.9424 77.9165 35.2773 77.9894 35.6178C78.0332 35.8233 77.9398 36.0418 77.7487 36.1395C77.5036 36.2645 77.3578 36.4183 77.298 36.6928C77.2644 36.8509 77.0077 36.8868 76.9231 36.7416C76.6139 36.2142 76.1616 36.3335 75.7036 36.4384C75.5825 36.4657 75.479 36.7129 75.5475 36.8264C75.7051 37.0851 75.8728 37.338 76.0289 37.5809C76.5234 37.5607 76.9742 37.5248 77.4249 37.5291C77.7852 37.532 78.02 37.8079 77.9661 38.1226C77.9135 38.423 77.9179 38.7578 77.7764 39.0122C77.5197 39.4764 77.4569 39.9434 77.4905 40.455C77.5138 40.8172 77.3301 41.142 77.1667 41.4625C76.9114 41.9626 76.6503 42.4598 76.6693 43.0461C76.6722 43.1453 76.6401 43.2473 76.6138 43.345C76.5088 43.7345 76.0741 43.9989 76.147 44.4458C76.22 44.8899 75.9283 45.2175 75.8291 45.6041C75.7066 46.0855 75.4367 46.4117 74.9451 46.577C74.8021 46.6244 74.7802 46.8213 74.8707 46.9679C74.9553 47.1073 74.9976 47.2381 74.9101 47.3933C74.7277 47.7138 74.6038 48.0285 74.8299 48.3978C74.894 48.5027 74.8313 48.6967 74.7934 48.8419C74.7423 49.0373 74.6782 49.2342 74.5833 49.4124C74.153 50.2229 73.8496 51.0765 73.5462 51.9431C72.9262 53.7207 72.1385 55.4366 71.0649 57.0059C70.3152 58.101 69.5668 59.1989 68.8054 60.2868C68.572 60.6202 68.3211 60.9507 67.9025 61.0887L67.9272 61.1102C67.7697 60.8415 67.6195 60.5656 67.2636 60.5096C67.3803 60.4104 67.4868 60.294 67.6151 60.2135C68.9105 59.3929 69.7638 58.1815 70.5923 56.9499C70.8199 56.6107 71.0081 56.2485 70.9789 55.8145C70.9658 55.6162 70.7105 55.4194 70.5442 55.5243C70.1956 55.7456 69.8571 55.9583 69.4224 55.9957C69.3261 56.0043 69.1642 56.2198 69.1759 56.3248C69.2153 56.6596 69.0899 56.9212 68.8973 57.1655C68.7398 57.3652 68.5604 57.5477 68.3999 57.7446C68.1694 58.0277 68.0177 58.3481 67.9521 58.706C67.8602 58.6801 67.7712 58.6471 67.6778 58.6312C67.637 58.6241 67.5816 58.6413 67.548 58.6672C67.5189 58.6902 67.5115 58.739 67.4955 58.7778C67.5713 58.8066 67.6574 58.8727 67.7201 58.8554C67.8018 58.8324 67.8645 58.7434 67.936 58.683C68.0294 58.7089 68.1388 58.7132 68.2146 58.7634C68.4116 58.8957 68.4232 59.1673 68.2292 59.2276C67.532 59.4446 67.0565 59.9132 66.6699 60.4952L66.6276 60.5426L66.6772 60.4952C66.8843 60.4937 67.09 60.4923 67.2971 60.4908C67.2183 60.6202 67.1323 60.7481 67.0623 60.8817C66.9354 61.1246 66.7239 61.3014 66.4671 61.3042C65.9187 61.3129 65.4752 61.5198 65.0945 61.8805C63.6854 63.217 62.11 64.325 60.3858 65.2303C60.2968 65.2777 60.2195 65.3468 60.1364 65.4057L60.1612 65.3813C59.9701 65.5508 59.8038 65.7678 59.5835 65.8799C58.3407 66.5151 57.1839 67.2724 56.1205 68.1692C55.9645 68.3014 55.8011 68.4423 55.6158 68.5213C54.9507 68.8073 54.3862 69.2528 53.7692 69.612C53.193 69.9483 52.6066 70.2702 52.0187 70.5878C51.7941 70.7085 51.5636 70.8537 51.32 70.8968C50.7978 70.9902 50.3325 71.1555 49.9824 71.5693C49.9197 71.6441 49.8205 71.703 49.7271 71.7375C48.7163 72.1169 47.6966 72.4718 46.6171 72.6184C46.4144 72.6457 46.2015 72.6299 46.0074 72.686C44.451 73.1358 42.8289 73.0452 41.2462 73.2708C41.1952 73.278 41.1427 73.2837 41.0916 73.278C40.32 73.2018 39.5687 73.1832 38.8117 73.4663C38.1421 73.7163 37.3909 73.7149 36.7461 74.0842C36.38 74.2941 35.9512 74.2941 35.5384 74.3056C34.9126 74.3228 34.3086 74.3975 33.7529 74.7165C33.2905 74.981 32.7814 75.0284 32.2534 74.9867C31.6874 74.9421 31.1184 74.9249 30.551 74.8933C30.0828 74.8674 29.635 74.8071 29.2484 74.4895C29.1026 74.3702 28.8721 74.3299 28.6722 74.2983C28.0596 74.2035 27.444 74.136 26.8299 74.0483C26.3719 73.9822 25.9153 73.9003 25.4587 73.827C25.1539 73.7781 24.849 73.7048 24.5412 73.689C23.4428 73.6301 22.4056 73.3384 21.3948 72.936C20.4845 72.5738 19.5699 72.2217 18.6772 71.8222C17.7889 71.4242 16.8597 71.0836 16.1683 70.3536C15.4141 70.0848 14.9035 69.4884 14.323 68.9955C14.0035 68.7253 13.7001 68.5026 13.2829 68.3862C12.3552 68.1275 11.6915 67.4665 11.0336 66.8155C10.758 66.5424 10.8367 66.2694 11.0599 66.0064C11.1693 66.1041 11.2787 66.2019 11.3881 66.2996C11.4334 66.4576 11.5354 66.5625 11.6973 66.6057L11.7396 66.6645L11.6755 66.6272C11.6361 66.4634 11.5281 66.3642 11.3677 66.3196C11.3692 66.2104 11.3721 66.1026 11.3735 65.9934L11.3983 66.0178C11.2787 66.0221 11.1605 66.025 11.0409 66.0294C11.1153 65.4833 10.9272 64.9803 10.7871 64.4687L10.7696 64.4802C11.0395 64.6929 11.3575 64.8696 11.5705 65.1283C12.011 65.6615 12.577 65.9029 13.2392 65.9934C13.3472 66.0969 13.4536 66.199 13.5601 66.3025C13.5966 66.426 13.6272 66.4447 13.6476 66.357C13.6476 66.3542 13.5761 66.3355 13.5382 66.3254C13.4332 66.2205 13.3267 66.1156 13.2217 66.0107C13.105 65.8469 12.997 65.6759 12.8672 65.5221C12.5755 65.1772 12.1773 64.9041 12.1335 64.4026C11.868 64.0836 11.7207 63.7286 11.7426 63.3061C11.7484 63.1753 11.5719 63.1135 11.3691 63.2414C11.0453 63.4455 10.7681 63.3679 10.5362 63.1494C10.2795 62.908 10.0738 62.6149 9.84624 62.3432L9.82146 62.3576C9.84626 62.3217 9.89585 62.2843 9.89147 62.2527C9.88126 62.1722 9.84775 62.0947 9.82295 62.0156L9.84482 62.0414C9.7325 61.9308 9.62014 61.8216 9.50928 61.7109L9.53264 61.7325C9.51805 61.4824 9.50054 61.2324 9.49325 60.9838C9.49179 60.9407 9.53413 60.8659 9.56476 60.8602C9.65374 60.8458 9.76892 60.8257 9.83456 60.8688C10.1394 61.0643 10.3933 61.3157 10.5683 61.6347C10.6792 61.8374 10.8426 61.9208 11.0789 61.8633C11.2525 61.8216 11.359 61.9337 11.4669 62.0472C11.8739 62.474 12.3596 62.7083 12.9723 62.6781C13.566 62.6479 14.0459 62.9799 14.5491 63.2199C14.6687 63.2774 14.7285 63.4541 14.8146 63.5763C14.6629 63.5806 14.5068 63.5648 14.3624 63.5964C14.288 63.6122 14.1874 63.7114 14.1815 63.7789C14.1757 63.8493 14.2573 63.9657 14.3259 63.9916C14.4003 64.0189 14.5448 63.9959 14.5914 63.9398C14.6833 63.832 14.7285 63.6855 14.7927 63.5547C15.312 63.7789 15.8138 64.0189 16.2397 64.4083C16.4979 64.644 16.8305 64.8036 17.1339 64.9918C17.255 65.0665 17.4957 65.0076 17.5336 64.8739C17.5715 64.7432 17.5949 64.565 17.5336 64.4572C17.3031 64.0476 16.9866 63.7085 16.4804 63.6481C16.0472 63.5964 15.7088 63.3837 15.4039 63.1006C15.2945 62.9986 15.1151 62.8721 15.1209 62.7643C15.1472 62.2513 14.6877 61.9682 14.571 61.5313C14.5608 61.4925 14.5797 61.4307 14.6075 61.4005C14.6337 61.3732 14.7023 61.3531 14.7329 61.3689C15.6737 61.8101 16.4265 62.5128 17.2171 63.1567C17.7306 63.5763 18.2119 64.0289 18.7881 64.3738C19.0901 64.5549 19.0711 64.7619 18.7604 65.0809C18.5839 65.262 18.6218 65.4545 18.8523 65.5264C19.1907 65.6313 19.5291 65.8009 19.8471 65.4574C19.9463 65.3496 20.0966 65.2605 20.238 65.2274C20.4291 65.1829 20.6785 65.124 20.8288 65.2045C21.4998 65.5623 22.2423 65.8569 22.5501 66.6416L22.5749 66.6157C22.3838 66.6631 22.1912 66.7063 22.0016 66.7609C21.9593 66.7724 21.8981 66.827 21.8995 66.86C21.9054 66.9491 21.9097 67.0655 21.9651 67.1201C22.3035 67.4564 22.7572 67.4938 23.2007 67.557L23.1773 67.5268ZM56.1147 55.5818C56.2183 55.4769 56.3204 55.372 56.424 55.2656C56.8864 55.2239 57.3473 55.1822 57.8345 55.1377C58.3392 54.8273 58.8615 54.5054 59.372 54.1921C59.4697 53.8918 59.4916 53.5828 59.8184 53.4147C60.3406 53.1459 60.6717 52.6904 60.9649 52.2018C61.0947 51.9848 61.2202 51.7548 61.3967 51.5795C62.0269 50.9572 62.1859 50.0318 62.8379 49.4268C62.8714 49.3966 62.8802 49.3333 62.8875 49.283C62.9808 48.6565 63.3222 48.1463 63.6708 47.6376C63.7262 47.5571 63.7729 47.4508 63.77 47.3574C63.767 47.2697 63.7029 47.1777 63.6474 47.1015C63.627 47.0742 63.5439 47.0627 63.5045 47.08C63.3192 47.1633 63.118 47.2309 62.9633 47.353C62.5943 47.6447 62.3448 48.0371 62.1333 48.4481C61.9218 48.8591 61.7045 49.2572 61.3544 49.5805C61.2115 49.7127 61.0714 49.9139 61.0495 50.0979C60.9634 50.8107 60.5477 51.305 60.0284 51.7476C59.8315 51.9143 59.655 52.0954 59.5865 52.357C59.4814 52.7551 59.197 52.9189 58.7944 52.972C58.6689 52.9893 58.4954 53.1388 58.4618 53.258C58.3174 53.7969 57.9396 54.1332 57.4844 54.3861C57.0687 54.6175 56.7463 54.9365 56.44 55.2829C56.3335 55.3849 56.2256 55.4855 56.1191 55.5875C56.1235 55.5919 56.1147 55.5818 56.1147 55.5818ZM75.6846 40.284C75.7897 40.182 75.8947 40.08 75.9997 39.9779L76.0173 39.9952C75.9035 40.0929 75.7882 40.192 75.6744 40.2898L75.6336 40.3386L75.6846 40.284ZM13.5645 67.1992L13.5514 67.2149L13.5222 67.1704C13.5222 67.1718 13.5645 67.1992 13.5645 67.1992ZM67.3045 29.8853C67.1002 29.8738 66.896 29.858 66.6903 29.8537C66.524 29.8493 66.3869 29.9787 66.4117 30.1353C66.4423 30.3308 66.4861 30.5291 66.5605 30.7116C66.5897 30.7849 66.7108 30.8596 66.7939 30.864C66.8712 30.8668 66.9966 30.7921 67.0214 30.7231C67.125 30.4415 67.1994 30.1483 67.284 29.8594C67.4036 29.9499 67.5159 30.0563 67.6472 30.1253C67.723 30.1655 67.8398 30.1698 67.9229 30.1454C68.044 30.1095 68.1256 29.8738 68.079 29.7589C68.0002 29.5634 67.8587 29.4182 67.656 29.3651C67.583 29.3464 67.4372 29.3996 67.408 29.4599C67.3453 29.5878 67.3365 29.7416 67.3045 29.8853ZM64.6277 23.404C64.7036 23.3451 64.8363 23.2948 64.8465 23.2273C64.8728 23.0347 64.883 22.8263 64.8392 22.6381C64.6248 21.6996 63.9188 21.099 63.2653 20.4638C63.2317 20.4307 63.1719 20.4063 63.1252 20.4092C63.0304 20.4135 62.9108 20.4091 62.8496 20.4623C62.7854 20.5169 62.7343 20.6449 62.7518 20.7239C62.7955 20.9165 62.8466 21.1248 62.9575 21.2843C63.417 21.9468 63.8983 22.5964 64.3797 23.2445C64.4337 23.3178 64.5446 23.3523 64.6277 23.404ZM68.6144 37.8309C68.6888 37.8353 68.7631 37.8395 68.8375 37.8438C68.9192 37.5536 68.9688 37.2504 69.0884 36.9773C69.3087 36.4772 69.2605 35.9886 69.1015 35.4971C69.0797 35.4281 68.9746 35.385 68.9075 35.3304C68.8448 35.4066 68.7486 35.4755 68.7238 35.5632C68.6683 35.7572 68.6231 35.9599 68.6187 36.1596C68.6056 36.7158 68.6144 37.2733 68.6144 37.8309ZM72.3311 52.8283C72.2713 52.7737 72.2159 52.6803 72.1517 52.6746C72.0759 52.6674 71.9693 52.7162 71.9168 52.7751C71.8278 52.8743 71.9971 53.0439 72.1546 52.9964C72.2232 52.9763 72.2728 52.8872 72.3311 52.8283ZM13.3603 63.9169C13.3486 63.8709 13.3501 63.8134 13.3223 63.7789C13.1852 63.605 12.9956 63.5834 12.7943 63.6337C12.7549 63.6438 12.7009 63.6955 12.6995 63.73C12.6936 63.914 13.032 64.0922 13.2742 64.0289C13.3121 64.0189 13.3326 63.9542 13.3603 63.9169ZM75.9472 38.8527C75.8422 38.9245 75.7182 38.982 75.638 39.0769C75.6044 39.1171 75.6642 39.235 75.6803 39.3183C75.7693 39.2953 75.8772 39.2939 75.9414 39.2421C76.0041 39.1904 76.0303 39.0869 76.0522 39.0007C76.0624 38.9719 76.0056 38.9288 75.9472 38.8527ZM25.9387 72.0422C25.8716 72.0982 25.7563 72.147 25.7476 72.2117C25.7315 72.3195 25.8336 72.3655 25.9547 72.3238C25.9984 72.3094 26.0568 72.2807 26.0713 72.2447C26.1122 72.1355 26.0597 72.0651 25.9387 72.0422ZM46.6288 64.6728C46.7076 64.6239 46.7922 64.5822 46.8607 64.5233C46.8884 64.5003 46.8958 64.4026 46.8812 64.394C46.8068 64.3537 46.7091 64.292 46.6434 64.3121C46.5676 64.3351 46.4888 64.4285 46.464 64.5075C46.4319 64.6067 46.5136 64.6684 46.6288 64.6728ZM16.0107 65.3554C16.1318 65.3726 16.1931 65.3295 16.1683 65.2347C16.1625 65.2117 16.0968 65.1959 16.056 65.1887C15.9349 65.17 15.8722 65.2145 15.8984 65.3036C15.9057 65.3295 15.9714 65.3381 16.0107 65.3554ZM70.9308 37.0304C70.9701 37.0046 71.0314 36.9873 71.0431 36.9528C71.0971 36.7861 71.0124 36.5892 70.8943 36.5936C70.8578 36.595 70.8024 36.6381 70.7922 36.6726C70.7367 36.8638 70.7995 37.0132 70.9308 37.0304ZM71.7651 53.8127L71.6703 53.8012L71.6922 53.8875L71.7651 53.8127ZM67.1192 17.7937C67.0754 17.798 67.0156 17.7865 66.9893 17.8109C66.9602 17.8368 66.9354 17.913 66.9529 17.936C67.0317 18.0423 67.1162 18.0351 67.1644 17.9201C67.1775 17.8899 67.1352 17.8368 67.1192 17.7937ZM16.533 68.0183L16.5855 67.9723H16.4819L16.533 68.0183ZM67.6399 40.044C67.6078 40.0167 67.5758 39.965 67.5451 39.9664C67.4226 39.9736 67.3949 40.0426 67.4751 40.1389C67.4941 40.1619 67.5641 40.1705 67.5918 40.1532C67.6209 40.1374 67.6253 40.0828 67.6399 40.044ZM75.2616 32.6488L75.2106 32.5353L75.1624 32.6488H75.2616ZM34.084 67.9364L33.9775 67.9824L34.0854 68.0269L34.084 67.9364ZM67.5276 38.7895L67.4824 38.7018L67.4386 38.7909L67.5276 38.7895Z" fill="#EF0002"></path>
<path d="M46.7806 2.64825C46.8841 2.81352 46.9833 2.97877 47.0898 3.14116C47.348 3.53349 47.402 3.94451 47.2211 4.38282C47.1657 4.51647 47.1321 4.65873 47.0883 4.79813L47.1044 4.7823C47.0198 4.90302 46.9162 5.01511 46.8593 5.14733C46.8229 5.23068 46.871 5.34565 46.8535 5.44194C46.8389 5.53103 46.7878 5.61438 46.7426 5.72504C46.4509 5.72504 46.1489 5.72504 45.8484 5.72504C45.8484 5.61726 45.847 5.50804 45.847 5.40025L45.8689 5.42183C45.5713 5.36147 45.2373 5.36577 44.9849 5.22781C44.5385 4.98207 44.1082 5.04244 43.6575 5.12866C43.6181 4.83837 43.7246 4.52652 43.4985 4.23048C43.2943 4.15144 43.0653 4.04222 42.8231 3.97756C42.5941 3.91576 42.33 4.2506 42.403 4.47766C42.4686 4.68029 42.5912 4.8585 42.7852 4.92173C43.0711 5.0137 43.3774 5.0496 43.675 5.10852C44.3022 5.69054 45.0797 5.72649 45.8747 5.70062C46.5107 6.22084 47.2488 6.51114 48.0569 6.64479L48.0306 6.62178C48.9919 7.55301 50.1516 7.93099 51.479 7.7686C51.8933 7.7183 52.2813 7.78585 52.6781 7.84045L52.662 7.82032C52.8239 8.12929 52.9961 8.43535 53.1463 8.75007C53.2747 9.01737 53.3447 9.3163 53.5066 9.5606C53.6393 9.76036 53.8699 9.89689 54.0493 10.0693C54.1368 10.1527 54.0624 10.3826 53.9355 10.4502C53.8917 10.4731 53.8465 10.5119 53.7998 10.5163C53.2295 10.5622 53.0471 10.9388 52.9888 11.4259C52.983 11.4748 52.9771 11.5251 52.9728 11.574L52.9917 11.5467C52.6941 11.4619 52.4287 11.3369 52.2317 11.0796C52.0144 10.7951 51.8379 10.4947 51.7664 10.1441C51.7081 9.85953 51.517 9.73019 51.2442 9.68277C51.1435 9.66553 51.0458 9.6382 50.9451 9.62095C50.6257 9.56778 50.4069 9.73454 50.4521 10.0018C50.4842 10.2002 50.541 10.3941 50.5688 10.591C50.5936 10.7749 50.7322 11.0279 50.4827 11.1156C50.3194 11.1731 50.0918 11.0911 49.9037 11.038C49.7607 10.9963 49.6265 10.9115 49.5054 10.8238C49.3406 10.7031 49.253 10.5522 49.2458 10.3252C49.2297 9.8107 49.1407 9.73885 48.6404 9.67849C48.5427 9.66699 48.4406 9.69857 48.3399 9.71007L48.3633 9.68852C48.3531 9.79199 48.3443 9.89549 48.3341 9.99896L48.3501 9.98457C47.7477 10.1987 47.1394 10.3769 46.4873 10.3108C46.2554 10.0033 45.898 10.0463 45.5756 9.99173C45.3714 9.88538 45.1687 9.77761 44.9645 9.67126C44.9236 9.66408 44.8843 9.65547 44.8449 9.64684C44.8915 9.64972 44.9382 9.65256 44.9849 9.654C45.1278 9.871 45.3554 9.93566 45.5961 9.97159C45.8441 10.2346 46.1475 10.3395 46.5078 10.2849C46.5559 10.5852 46.6362 10.8727 46.8564 11.1529C47.2751 11.2262 47.7287 11.2851 48.1722 11.39C48.4697 11.4604 48.7586 11.5783 49.0357 11.7047C49.3114 11.8312 49.5857 11.9721 49.8307 12.146C50.4536 12.59 51.0691 13.0441 51.7854 13.3329C52.118 13.4666 52.2346 13.7195 52.3003 14.0242C52.3221 14.1234 52.3339 14.224 52.3499 14.3231L52.3659 14.3016C51.1931 13.8101 49.9591 13.4479 48.8563 12.8127C48.2903 12.4865 47.7112 12.4161 47.0913 12.4305L47.1146 12.452C46.8404 12.235 46.5063 12.2006 46.1766 12.1488L46.1912 12.1373C46.0366 12.3069 45.8353 12.3528 45.6326 12.2796C45.1979 12.12 44.7675 11.9462 44.3416 11.7608C43.7669 11.5093 43.1892 11.3239 42.5445 11.4389C42.2892 11.4849 42.2484 11.2448 42.1244 11.0882C42.0135 10.9474 41.7758 10.8698 41.5803 10.8353C40.7182 10.6787 39.8546 10.5249 38.9867 10.4142C38.323 10.3294 37.6433 10.3855 36.9971 10.1585C36.9023 10.1254 36.787 10.1038 36.6922 10.1254C35.4319 10.4085 34.1176 10.1584 32.8617 10.5033C32.567 10.5838 32.2475 10.5767 31.9397 10.6126C31.6319 10.6485 31.3227 10.6758 31.0179 10.7289C30.764 10.7735 30.5161 10.8468 30.2666 10.9158C29.425 11.15 28.5745 11.3584 27.746 11.6329C26.719 11.9735 25.7067 12.3572 24.7002 12.751C24.283 12.9133 23.8965 12.8875 23.4968 12.7394L23.5157 12.7581C23.3276 12.7078 23.1394 12.6202 22.9484 12.6144C22.6887 12.6058 22.4626 12.531 22.2394 12.4175L22.2526 12.4348C22.6625 12.2221 23.0592 11.9821 23.4837 11.8025C23.9082 11.6228 24.3545 11.4892 24.7979 11.3598C25.3522 11.1989 25.8905 10.9963 26.2596 10.5421C26.6024 10.1211 27.1625 10.0506 27.533 9.69856C27.622 9.61377 27.638 9.42413 27.6336 9.28617C27.6307 9.21 27.5272 9.11372 27.4455 9.07061C27.2909 8.98869 27.1392 9.0562 27.0371 9.17404C26.862 9.37667 26.6724 9.5204 26.3851 9.52327C25.9752 9.52759 25.5653 9.55343 25.17 9.56923C25.0445 9.70288 24.938 9.8121 24.8359 9.92563C24.6156 10.1728 24.3749 10.3266 24.0204 10.17C23.806 10.0751 23.6252 10.1886 23.4574 10.3237C23.364 10.3999 23.2649 10.3783 23.2124 10.2806C23.1905 10.2418 23.1861 10.17 23.208 10.1369C23.4078 9.84375 23.6091 9.55054 23.8236 9.26743C23.8834 9.18839 23.9826 9.08783 24.0642 9.08639C24.8767 9.08065 25.3756 8.3075 26.1823 8.26583C26.4434 8.25289 26.5717 8.01288 26.5819 7.70678C26.5907 7.45529 26.8358 7.33887 27.0181 7.47827C27.3361 7.72114 27.6234 7.77002 28.0071 7.60331C28.4286 7.4208 28.8838 7.28284 29.3389 7.20668C30.0362 7.08884 30.1339 6.76693 30.0303 6.27401C29.988 6.0757 29.9866 5.86012 29.902 5.68336C29.8465 5.56695 29.6511 5.41319 29.5548 5.43474C28.9567 5.56839 28.3368 5.65463 27.8715 6.13462C27.6789 6.33294 27.393 6.274 27.1757 6.07999C26.9919 5.91473 26.9641 5.54108 27.1465 5.39306C27.3025 5.2666 27.4747 5.1229 27.6614 5.07835C28.5308 4.87141 29.2295 4.34975 29.9895 3.93156C29.9895 3.55648 29.9895 3.21014 29.9895 2.88248C30.5365 2.56489 31.0558 2.49449 31.6582 2.58359C32.3074 2.67988 32.9827 2.60513 33.6566 2.60513C33.6202 2.25592 33.3431 2.43268 33.1986 2.35077C33.1549 2.32634 33.0892 2.31052 33.0717 2.27316C33.0207 2.16682 33.0703 2.06623 33.1928 2.06335C33.6567 2.05185 34.122 2.05904 34.5858 2.05904C34.9782 2.05904 35.2846 1.9139 35.4815 1.56325C35.5515 1.43822 35.6507 1.32757 35.7382 1.20973C36.0503 1.41236 36.259 1.71701 36.6762 1.69833C37.1298 1.67821 37.5747 1.99725 38.0415 1.74864C38.5681 1.92827 39.1734 1.88228 39.6431 2.17689C39.929 2.35508 40.0677 2.38094 40.2733 2.13233C40.3696 2.01592 40.5053 1.92969 40.6292 1.83772C40.9852 1.57617 41.2258 1.58767 41.608 1.88084C41.6897 1.94407 41.7728 2.00588 41.8429 2.08061C41.9464 2.19127 42.0398 2.31195 42.1506 2.44416C42.4482 2.38956 42.7444 2.33353 43.0419 2.28179C43.2943 2.23724 43.5539 2.14095 43.799 2.16538C44.0426 2.18981 44.276 2.33353 44.5108 2.43413C45.2489 2.74741 46.0162 2.76321 46.7966 2.66836L46.7806 2.64825ZM46.4816 8.76593L46.5238 8.7975L46.4742 8.76593C46.4334 8.74868 46.3926 8.73142 46.3517 8.71562C46.3955 8.73286 46.4393 8.75012 46.4816 8.76593ZM34.6763 8.7587C34.7755 8.78026 34.8805 8.83201 34.9724 8.81477C35.0497 8.79896 35.1562 8.70986 35.1664 8.64088C35.1781 8.56903 35.1066 8.43681 35.041 8.41381C34.9724 8.38938 34.8396 8.4397 34.7871 8.50005C34.7273 8.56903 34.7259 8.68543 34.6982 8.78172L34.6763 8.7587ZM39.331 9.07776C39.0714 9.1683 38.7081 9.08928 38.6439 9.49598C38.9021 9.68855 39.2012 9.59223 39.4841 9.60228C39.5585 9.60516 39.6344 9.53617 39.8124 9.44995C39.6242 9.30767 39.4725 9.19269 39.3193 9.07629L39.3616 9.04324L39.331 9.07776ZM33.1228 7.553C32.8398 7.66941 32.5626 7.80448 32.2724 7.89645C31.931 8.00567 31.578 8.07611 31.2308 8.16808C31.0893 8.20544 31.012 8.3664 31.0645 8.53023C31.1258 8.7228 31.2031 8.91108 31.2746 9.10078C31.2309 9.07779 31.1885 9.04183 31.1433 9.03608C30.729 8.9786 30.4883 9.26605 30.6444 9.64544C30.6765 9.72161 30.7728 9.78624 30.8545 9.8236C30.9785 9.87965 31.1812 9.77908 31.206 9.63969C31.2381 9.45286 31.2352 9.25883 31.2468 9.06913C31.6071 9.04183 31.648 8.64517 31.9091 8.51009C32.1746 8.37356 32.462 8.28016 32.7318 8.15369C32.9886 8.03442 33.0396 7.78152 33.1082 7.54297L33.1228 7.553ZM30.7757 4.56818C30.678 4.96194 30.5963 5.29391 30.5175 5.61726C30.5788 5.65749 30.6255 5.71356 30.6561 5.70637C31.1506 5.58997 31.6422 5.46637 32.1337 5.33991C32.179 5.32841 32.2242 5.28815 32.2505 5.24792C32.2753 5.21055 32.2884 5.15595 32.2811 5.1114C32.2753 5.06829 32.2432 4.99646 32.214 4.99215C31.969 4.95622 31.7122 4.96194 31.4759 4.89584C31.2454 4.82973 31.0339 4.69177 30.7757 4.56818ZM29.6379 8.54026C29.2733 8.59631 28.8765 8.64949 28.4856 8.72853C28.4462 8.73715 28.3878 8.92685 28.4228 8.98289C28.6139 9.29905 28.945 9.45568 29.2733 9.57927C29.3827 9.62094 29.5708 9.54341 29.6861 9.4658C29.9297 9.30198 29.9223 9.03749 29.864 8.78887C29.8436 8.7084 29.74 8.64804 29.6379 8.54026ZM31.6845 7.49841C32.0856 7.45386 32.2272 7.34752 32.3322 6.99543C32.3424 6.9595 32.3132 6.89769 32.2825 6.86895C32.2519 6.84165 32.1892 6.82297 32.1513 6.8359C31.9033 6.91494 31.7005 7.05723 31.5751 7.2886C31.5532 7.32884 31.543 7.39351 31.5619 7.43087C31.5795 7.46392 31.6422 7.47685 31.6845 7.49841ZM40.9706 4.25634C40.8801 4.16868 40.8043 4.0494 40.6963 4.00054C40.5432 3.93156 40.3827 4.08965 40.4381 4.23048C40.4921 4.36844 40.584 4.48771 40.743 4.46759C40.8145 4.4604 40.8714 4.35406 40.9706 4.25634ZM38.1698 7.28141C38.1917 7.23973 38.2326 7.19517 38.2267 7.1578C38.2209 7.12331 38.1684 7.07304 38.1319 7.06872C38.04 7.05579 37.9306 7.03567 37.8548 7.0716C37.7877 7.10322 37.7556 7.20668 37.7074 7.27997C37.7804 7.32739 37.8548 7.41217 37.9262 7.41073C38.0094 7.40786 38.0896 7.3274 38.1698 7.28141ZM31.3767 3.00033C31.2965 3.04057 31.2177 3.08082 31.1374 3.12106C31.1783 3.19866 31.2017 3.30498 31.2659 3.34522C31.3344 3.38833 31.4599 3.39985 31.5299 3.36392C31.5824 3.33805 31.6261 3.19577 31.5984 3.1426C31.5649 3.07506 31.4555 3.04488 31.3767 3.00033ZM48.6215 8.82915C48.5762 8.8464 48.5193 8.85216 48.4916 8.88234C48.4668 8.90964 48.4522 8.98144 48.4712 9.00444C48.5339 9.0806 48.601 9.16544 48.6871 9.20281C48.7615 9.23586 48.8636 9.20712 48.954 9.20568C48.9336 9.11946 48.938 9.01024 48.8855 8.95419C48.8228 8.88809 48.7104 8.86795 48.6215 8.82915ZM34.8426 7.6378C34.5654 7.60475 34.3933 7.68232 34.5304 7.75274C34.6048 7.79154 34.7113 7.79297 34.7988 7.78004C34.8644 7.76998 34.9214 7.71109 34.9826 7.67373C34.9345 7.6608 34.8893 7.64355 34.8426 7.6378ZM31.9295 9.6526C31.9018 9.68278 31.8493 9.71441 31.8508 9.74459C31.8537 9.86674 31.9208 9.89113 32.0185 9.80634C32.0433 9.78478 32.055 9.72011 32.0404 9.6928C32.0259 9.66837 31.9675 9.66553 31.9295 9.6526Z" fill="#EF0002"></path>
<path d="M3.93271 21.9296C3.96334 21.6278 3.93715 21.3074 4.03342 21.0286C4.43456 19.8674 5.03116 18.801 5.77218 17.8152C6.02162 17.4832 6.3367 17.2232 6.72617 17.0593L6.70424 17.0378C6.71591 17.3468 6.72611 17.6543 6.73778 17.9633L6.71741 17.9417C6.81515 17.9159 6.91576 17.8957 7.01058 17.8612C7.12727 17.8181 7.21478 17.8325 7.25417 17.9302C7.27021 17.969 7.26294 18.0351 7.23814 18.0696C7.12436 18.2348 6.99451 18.3887 6.88365 18.5554C6.80197 18.6775 6.90116 18.9146 7.02952 18.916C7.43358 18.9203 7.85369 18.9821 8.23879 18.8959C8.64431 18.8054 8.91855 18.9936 9.22925 19.1431C9.23509 19.1848 9.23799 19.2279 9.25112 19.2667C9.26133 19.2983 9.28614 19.3242 9.30511 19.3529C9.27302 19.2897 9.2424 19.225 9.21031 19.1618C9.36201 18.939 9.59979 18.7608 9.83901 18.7795C10.5494 18.837 11.1154 18.4935 11.7164 18.2305C11.6055 18.653 11.4961 19.0755 11.3867 19.498C10.8659 19.5311 10.3962 19.715 9.92071 19.9651C9.82881 20.2482 9.7296 20.5327 9.64792 20.8244C9.62166 20.9179 9.63336 21.0242 9.64357 21.1234C9.64795 21.1679 9.68 21.2355 9.71501 21.247C9.80107 21.2743 9.93674 21.3188 9.98196 21.2786C10.5596 20.767 10.9563 20.116 11.3662 19.4765C11.5661 19.4578 11.7659 19.4492 11.9643 19.419C12.1116 19.3975 12.2561 19.3572 12.399 19.3141C12.6616 19.2351 12.7345 18.952 12.5464 18.735C12.4822 18.6617 12.3903 18.6128 12.31 18.5525L12.3319 18.5754C12.1189 18.4676 11.9074 18.3599 11.6944 18.2521C11.4158 18.0308 11.1153 18.1343 10.8221 18.2061C10.4327 18.3024 10.1278 18.1443 9.84336 17.9129C9.60851 17.7218 9.65816 17.3007 9.90468 17.1326C10.176 16.9472 10.4852 16.9731 10.7799 16.9141C10.99 16.8725 11.1723 16.7733 11.2612 16.5836C11.4319 16.2215 11.5778 15.8479 11.7353 15.4785L11.7164 15.5001C12.1248 15.7027 12.6003 15.7818 12.93 16.1339L12.9169 16.1166C13.035 16.1166 13.1517 16.1166 13.2699 16.1166L13.248 16.1381C13.4595 16.3293 13.4959 16.5564 13.4113 16.8222C13.3253 17.0953 13.4653 17.3108 13.6331 17.5077C13.8723 17.7879 14.1247 17.8397 14.4427 17.6845C14.6688 17.5738 14.8963 17.4674 15.1239 17.3597L15.0991 17.3366C15.0947 17.7132 14.9036 18.0135 14.6775 18.2938C14.517 18.4906 14.3406 18.6746 14.1699 18.8643L14.1859 18.8528C14.1859 18.9692 14.1859 19.0842 14.1859 19.2006L14.167 19.1905C13.9423 19.3156 13.709 19.4262 13.4974 19.5699C13.3749 19.6532 13.2348 19.7711 13.1954 19.9004C12.9212 20.8015 12.3276 21.4985 11.7193 22.1825C11.3765 22.5677 11.0614 22.9556 10.9797 23.4859C10.9578 23.6282 10.8455 23.7575 10.7726 23.8898C10.653 24.1053 10.2737 24.1542 10.1045 23.9631C9.97173 23.8122 9.8565 23.6455 9.75148 23.4745C9.61874 23.2589 9.50641 23.0319 9.37804 22.8134C9.31678 22.7099 9.05131 22.6524 8.95795 22.7214C8.83396 22.812 8.72307 22.9183 8.60054 23.0117C8.16439 23.3437 7.87707 23.2474 7.73266 22.7229C7.71953 22.674 7.72538 22.6194 7.70787 22.5734C7.66411 22.4642 7.5532 22.401 7.47589 22.4728C7.14185 22.789 6.66485 22.3621 6.33956 22.6955C6.33081 22.7042 6.24627 22.6639 6.22147 22.6294C6.19375 22.5921 6.17618 22.5289 6.18785 22.4872C6.24328 22.2932 6.31042 22.1006 6.3746 21.9095C6.47817 21.6019 6.66343 21.3893 6.99747 21.293C7.23962 21.2226 7.46276 21.0903 7.6947 20.9854L7.67725 21.0056C7.8873 20.9509 8.03751 20.846 8.07981 20.6146C8.12649 20.3588 8.1017 20.2094 7.86685 20.1333C7.53281 20.0255 7.35779 19.8372 7.3432 19.4951L7.36507 19.5139C7.10396 19.6562 6.85454 19.8243 6.5803 19.9364C6.19812 20.0916 5.90344 20.3215 5.64233 20.6405C5.42791 20.9021 5.13178 21.0975 4.87068 21.3231L4.88528 21.316C4.87069 21.4137 4.86627 21.5157 4.83855 21.6106C4.71748 22.0259 4.61688 22.092 4.1924 22.0201C4.09612 22.0043 4.00569 21.9483 3.91234 21.9109L3.93271 21.9296ZM8.89228 20.7095L8.93751 20.7483L8.88936 20.7066C8.8704 20.6707 8.85149 20.6334 8.83253 20.5974C8.85149 20.6348 8.87186 20.6721 8.89228 20.7095Z" fill="#EF0002"></path>
<path d="M4.87214 58.3812C4.6723 57.815 4.43744 57.2574 4.2799 56.6782C3.98816 55.599 3.64969 54.5399 3.12456 53.5454C3.00348 53.3155 2.95537 53.0683 3.03559 52.811C3.05018 52.7665 3.09101 52.7205 3.13332 52.6975C3.17124 52.6774 3.24712 52.6688 3.27192 52.6917C3.45572 52.8599 3.67892 53.0108 3.79999 53.2177C4.15883 53.8328 4.44472 54.4838 4.59059 55.1866C4.61976 55.326 4.67812 55.5242 4.78169 55.5717C5.35058 55.8318 5.52708 56.3937 5.8334 56.8478C6.51462 57.8596 7.1754 58.8856 7.97915 59.8111C8.15127 60.0094 8.27088 60.2249 8.26505 60.4937L8.28691 60.4736C8.11333 60.4018 7.93977 60.3299 7.76618 60.258C7.5926 60.1862 7.5007 60.2192 7.44089 60.3902C7.39422 60.5253 7.36504 60.6647 7.32857 60.8027L7.34901 60.784C7.24545 60.7926 7.14182 60.8012 7.03826 60.8099L7.0587 60.7897C7.09225 61.0455 7.16662 61.2855 7.36062 61.4723C7.61735 61.721 7.89017 61.9538 8.13378 62.2153C8.3059 62.3992 8.4445 62.6148 8.59183 62.8218C8.77125 63.0733 8.4722 63.296 8.54368 63.5475C8.58015 63.6739 8.57429 63.8119 8.59033 63.9786C7.59112 63.4426 7.24104 63.161 6.62401 62.4855C5.92967 61.7267 5.39432 60.863 4.86481 59.9936C4.78312 59.8585 4.84583 59.7723 5.17549 59.5596L5.15512 59.5797C5.10115 59.4015 5.03841 59.2248 4.99465 59.0437C4.94068 58.8181 4.90127 58.5896 4.85605 58.3625C4.85313 58.3625 4.87214 58.3812 4.87214 58.3812Z" fill="#EF0002"></path>
<path d="M8.6035 17.6614C8.68081 17.1599 8.70565 16.6828 8.46788 16.1884C8.23595 15.7041 8.46641 15.181 8.99737 14.9338C9.47291 14.7125 9.87842 14.405 10.265 14.0788C11.2029 13.2898 12.1044 12.4621 13.0351 11.6645C13.2233 11.5035 13.4625 11.3914 13.6944 11.2937C13.8403 11.2333 13.9978 11.2981 14.097 11.436C14.1787 11.5495 14.167 11.7838 14.0853 11.8585C14.0474 11.893 14.0255 11.949 13.9832 11.9706C12.9578 12.5123 12.1846 13.2884 11.6843 14.3288C11.5238 14.6608 11.2554 14.885 10.882 14.9884C10.4896 15.0962 10.3058 15.388 10.2591 15.7746C10.2212 16.0893 10.1191 16.3609 9.82153 16.5348C9.50499 16.7187 9.28908 17.0018 9.06881 17.2864C8.95212 17.4373 8.7465 17.522 8.58021 17.6355L8.6035 17.6614Z" fill="#EF0002"></path>
<path d="M14.8044 14.2843C14.9911 14.0084 15.2114 13.7469 15.3558 13.4509C15.4929 13.1677 15.4389 12.8875 15.1064 12.7323L15.1224 12.7481C15.118 12.6475 15.1166 12.5455 15.121 12.4449L15.102 12.4621C15.2216 12.2465 15.3325 12.0267 15.4638 11.8183C15.5411 11.6976 15.6519 11.5984 15.7482 11.4892C15.7292 11.4834 15.8095 11.5639 15.7321 11.5064C16.0195 11.3038 16.3054 11.0983 16.5957 10.8972C16.9749 10.6356 17.363 10.6931 17.7408 10.8914C17.805 10.9259 17.8692 11.0624 17.8517 11.1314C17.7904 11.3699 17.6926 11.6013 17.608 11.8341L17.5891 11.814C17.6897 12.0267 17.7904 12.2408 17.8911 12.4535L17.9129 12.4305C17.6533 12.5239 17.4767 12.6676 17.4986 12.9809C17.5088 13.1203 17.4811 13.2798 17.4155 13.4019C17.3455 13.5313 17.2171 13.6333 17.099 13.731C16.9852 13.8273 16.8641 13.9437 16.7269 13.9797C16.2572 14.1004 16.1216 14.6738 15.6257 14.7442C15.4754 14.7658 15.3266 14.8146 15.1764 14.8204C15.0042 14.8275 14.8934 14.7212 14.8555 14.5588C14.8322 14.4611 14.8336 14.359 14.8249 14.2584C14.822 14.2613 14.8044 14.2843 14.8044 14.2843ZM16.6555 12.4248C16.6555 12.4248 16.6716 12.442 16.673 12.442L16.6555 12.4248Z" fill="#EF0002"></path>
<path d="M20.3927 62.6307C20.3723 62.4324 20.3344 62.234 20.3446 62.0386C20.3475 61.9811 20.4992 61.8719 20.5575 61.8863C20.7545 61.9351 20.9587 61.9998 21.125 62.109C21.4692 62.3332 21.7813 62.6019 22.1241 62.829C22.3794 62.9971 22.6551 63.1423 22.9338 63.2716C23.5873 63.572 24.251 63.8507 24.903 64.1525C24.9672 64.1827 25.0255 64.3193 25.0124 64.394C24.9978 64.4788 24.9147 64.5693 24.8359 64.6239C24.6565 64.7504 24.4464 64.7475 24.2407 64.6943C23.472 64.4917 22.8258 64.0893 22.2758 63.526C22.1344 63.3808 21.9316 63.4628 21.8033 63.7071C21.7799 63.7516 21.7756 63.8063 21.7537 63.8508C21.7318 63.8954 21.6997 63.9341 21.6472 64.0117C21.4707 64.0117 21.2592 63.9715 21.071 64.0189C20.3489 64.2029 20.0149 63.8034 19.7771 63.2343L19.7611 63.2673C19.7903 63.2314 19.8457 63.1911 19.8413 63.161C19.8282 63.0805 19.7888 63.0043 19.7596 62.9267L19.78 62.9584C19.9317 62.7572 20.1476 62.6724 20.3869 62.6278L20.435 62.6681L20.3927 62.6307Z" fill="#EF0002"></path>
<path d="M10.4371 50.4126C10.5742 50.5592 10.7463 50.6857 10.8426 50.8538C11.7149 52.3857 12.6558 53.8774 13.5791 55.3791C13.6229 55.4496 13.5952 55.566 13.5893 55.6594C13.5806 55.7701 13.353 55.76 13.2057 55.6335C13.0511 55.5027 12.9139 55.3504 12.7506 55.2312C12.6324 55.1435 12.4851 55.0946 12.3494 55.0285L12.367 55.0515C12.1233 54.56 11.8797 54.0685 11.6347 53.577C11.5895 53.4879 11.5252 53.406 11.4932 53.314C11.3721 52.9677 10.8091 52.9389 10.8266 52.5811C10.8484 52.1629 10.7099 51.8037 10.634 51.4185C10.5669 51.0779 10.5173 50.7359 10.459 50.3939L10.4371 50.4126Z" fill="#EF0002"></path>
<path d="M21.3146 10.9344C21.4663 10.9201 21.6209 10.8827 21.7697 10.9C21.847 10.9086 21.9214 11.0063 21.9768 11.0767C21.9958 11.1012 21.9754 11.1917 21.9447 11.2147C21.51 11.5495 21.1118 11.9792 20.6188 12.1833C19.974 12.4505 19.5131 12.8774 19.0594 13.3559C18.8625 13.5643 18.5489 13.4939 18.2819 13.205C18.2484 13.1691 18.2338 13.1174 18.2105 13.0714L18.1886 13.0901C18.5678 12.8271 18.9515 12.5698 19.3249 12.2997C19.5422 12.143 19.5423 12.0496 19.3731 11.6573C19.2826 11.4446 19.376 11.2765 19.5831 11.1917C19.8894 11.0667 20.19 11.0954 20.4963 11.1687C20.8274 11.2477 21.1075 11.1658 21.335 10.9129L21.3146 10.9344Z" fill="#EF0002"></path>
<path d="M12.6265 59.2478C12.3304 59.2938 12.0197 59.2967 11.7426 59.3929C10.8105 59.7163 10.8148 59.7321 10.1161 59.5639C9.98338 59.1688 10.3685 58.9632 10.4662 58.6528L10.4458 58.6729C10.7405 58.5853 10.9491 58.4128 11.1241 58.1513C11.3517 57.8121 11.3779 57.8294 11.8578 57.9989C11.9045 58.0148 11.9497 58.0363 11.9949 58.055L11.9862 58.0378C12.0985 58.147 12.2094 58.2576 12.3217 58.3668L12.2969 58.3438C12.4092 58.4545 12.5216 58.5638 12.6339 58.6744L12.6119 58.66C12.6105 58.8626 12.6091 59.0653 12.6076 59.2679L12.6265 59.2478Z" fill="#EF0002"></path>
<path d="M52.1777 54.0929C52.1646 54.2366 52.1792 54.343 52.1398 54.4249C52.0989 54.5097 52.0158 54.5859 51.9342 54.6391C51.428 54.971 50.8065 55.1233 50.401 55.6191C50.3179 55.7212 50.1327 55.7557 49.9868 55.7945C49.3975 55.954 48.8052 56.1049 48.213 56.2543C48.1736 56.2644 48.108 56.2414 48.0817 56.2112C48.0132 56.1351 48.0292 56.0316 48.1386 55.9813C49.3916 55.4122 50.6067 54.7741 51.778 54.0527C51.867 53.9967 52.0436 54.0757 52.1777 54.0929Z" fill="#EF0002"></path>
<path d="M56.1104 11.5179C55.7515 11.5337 55.3927 11.5668 55.0353 11.5596C54.7465 11.5538 54.5175 11.2262 54.5525 10.8885C54.5612 10.798 54.6181 10.6614 54.6881 10.6355C55.1155 10.476 55.5517 10.3352 55.9879 10.2015C56.195 10.1383 56.4415 10.2346 56.5334 10.3855C56.6618 10.6011 56.656 10.9158 56.5013 11.0983C56.3715 11.2521 56.2241 11.3929 56.0841 11.5395L56.1104 11.5179Z" fill="#EF0002"></path>
<path d="M62.323 27.458C62.641 27.5586 62.9575 27.6578 63.2755 27.7584L63.2508 27.7311C63.2522 27.9998 63.3616 28.2154 63.5804 28.3764L63.557 28.3519C63.6314 28.8003 63.7087 29.2472 63.7758 29.697C63.7904 29.7933 63.7846 29.9069 63.7452 29.9931C63.7073 30.0736 63.6212 30.1626 63.5381 30.1856C63.4608 30.2086 63.3062 30.177 63.2785 30.1224C62.8336 29.2731 62.3683 28.4281 62.3449 27.4365L62.323 27.458Z" fill="#EF0002"></path>
<path d="M16.3434 60.202C16.6584 60.363 16.9663 60.5426 17.293 60.6806C17.6023 60.8113 17.7569 61.0729 17.9188 61.3244C18.034 61.504 18.0223 61.7195 17.9085 61.9006C17.8633 61.9739 17.7219 62.0688 17.6694 62.0472C17.1982 61.8532 16.73 61.6491 16.2748 61.4192C15.9496 61.2553 15.9933 60.9995 16.3652 60.7725L16.3449 60.7912C16.3521 60.5857 16.3609 60.3816 16.3681 60.1761L16.3434 60.202Z" fill="#EF0002"></path>
<path d="M25.7548 0.920881C26.6767 0.518498 27.6454 0.206633 28.6489 0.00400381C28.7365 -0.0132412 28.8444 0.0284609 28.9333 0.0672621C29.0179 0.104626 28.8983 0.297176 28.7276 0.406394C27.8947 0.939552 26.9903 1.2543 25.9897 1.25573C25.9124 1.25573 25.8263 1.15943 25.7592 1.09332C25.7344 1.06746 25.7548 0.998484 25.7548 0.920881Z" fill="#EF0002"></path>
<path d="M10.459 50.3939C10.157 50.2962 9.93525 50.1238 9.8346 49.8105C9.59537 49.0589 9.26133 48.3475 8.88936 47.6506L8.90838 47.6779C8.9361 47.5298 8.94191 47.3731 8.99734 47.2366C9.02652 47.1676 9.14468 47.093 9.22199 47.0944C9.30659 47.0958 9.43936 47.1633 9.46707 47.2338C9.87989 48.267 10.2795 49.3046 10.4356 50.4126C10.4371 50.4126 10.459 50.3939 10.459 50.3939Z" fill="#EF0002"></path>
<path d="M61.3369 19.5527C61.2888 19.5369 61.2319 19.5311 61.1925 19.5038C60.5711 19.0597 60.1306 18.436 59.5836 17.9144C59.1912 17.5407 58.9403 17.0219 58.6296 16.5664C58.6048 16.529 58.615 16.4687 58.6091 16.4184L58.5858 16.4342C59.0468 16.5779 59.3152 16.9602 59.6376 17.272C60.1102 17.7261 60.5186 18.2492 61.0992 18.5869L61.0671 18.551C61.1881 18.847 61.3092 19.1445 61.4303 19.4406L61.3369 19.5527Z" fill="#EF0002"></path>
<path d="M0.780457 45.5452C1.05323 45.7133 1.2341 45.9576 1.31579 46.2565C1.48791 46.886 1.64841 47.5183 1.79428 48.1549C1.81033 48.2268 1.71844 48.3274 1.66301 48.4064C1.65426 48.4179 1.55067 48.3964 1.53317 48.3662C1.45732 48.2354 1.41357 48.0831 1.32604 47.9624C0.789243 47.2237 0.644815 46.4075 0.797978 45.5251L0.780457 45.5452Z" fill="#EF0002"></path>
<path d="M7.66699 11.8341C7.72096 11.6962 7.73703 11.5194 7.83622 11.4274C8.31759 10.979 8.81645 10.5508 9.31679 10.1225C9.63624 9.84948 10.0243 9.7316 10.4371 9.68705L10.4167 9.66263C9.75732 10.2576 9.09798 10.854 8.43865 11.449C8.21547 11.6501 7.98209 11.8326 7.65389 11.8183L7.66699 11.8341Z" fill="#EF0002"></path>
<path d="M7.03102 12.4449C7.08353 12.5828 7.13752 12.7193 7.18857 12.8587C7.3359 13.2568 7.31251 13.6304 7.0266 13.9667L7.04996 13.9897C7.02371 13.9495 7.00182 13.9021 6.96827 13.8676C6.68382 13.5873 6.59633 13.5801 6.34398 13.7368C6.0537 13.9164 5.75754 14.086 5.46434 14.2584L5.48628 14.2772C5.66278 13.389 6.21703 12.8099 7.03244 12.4463L7.03102 12.4449Z" fill="#EF0002"></path>
<path d="M38.6994 11.5093C38.0138 12.0094 37.2552 11.8887 36.4982 11.7507C36.4617 11.7435 36.4165 11.5725 36.4427 11.5006C36.4719 11.4216 36.5828 11.3095 36.6484 11.3152C37.3413 11.3813 38.0678 11.1457 38.7242 11.5366L38.6994 11.5093Z" fill="#EF0002"></path>
<path d="M6.76846 45.2018C6.62843 44.7821 6.4621 44.3682 6.3629 43.94C6.32352 43.7689 6.42713 43.5634 6.47672 43.3766C6.48693 43.3407 6.55105 43.3062 6.59481 43.2976C6.63566 43.2904 6.7057 43.3048 6.72466 43.3335C6.8078 43.4528 6.91578 43.5735 6.94204 43.7086C7.04123 44.1943 6.98727 44.6858 6.76846 45.2018Z" fill="#EF0002"></path>
<path d="M22.5501 66.6272C23.0592 66.5884 23.5566 66.6703 24.0424 66.8082C24.1139 66.8284 24.1912 66.9592 24.1941 67.0425C24.197 67.1115 24.1095 67.2222 24.0365 67.2495C23.755 67.3558 23.4647 67.4377 23.1773 67.5283L23.2021 67.544C23.1307 67.4736 23.0724 67.3831 22.9877 67.3386C22.6829 67.1791 22.5705 66.9261 22.5763 66.6028L22.5501 66.6272Z" fill="#EF0002"></path>
<path d="M4.92023 32.3154C4.8896 32.6129 4.87064 32.9132 4.82251 33.2079C4.80938 33.2869 4.71169 33.353 4.65335 33.4248C4.58479 33.3659 4.46367 33.3113 4.45783 33.2452C4.42282 32.9003 4.38635 32.5497 4.4126 32.2048C4.43448 31.9073 4.5687 31.6285 4.79772 31.4129C4.83127 31.3813 4.88377 31.3554 4.92899 31.354C4.95962 31.354 5.01798 31.4028 5.01652 31.4258C4.99464 31.7233 4.96254 32.0194 4.93483 32.3154C4.92899 32.3154 4.9246 32.3154 4.92023 32.3154Z" fill="#EF0002"></path>
<path d="M5.44249 28.0329C5.47896 27.5802 5.51983 27.129 5.54755 26.6763C5.56213 26.4363 5.38123 26.3329 5.1989 26.2323C5.1668 26.215 5.142 26.1388 5.15367 26.1058C5.16825 26.0655 5.22373 26.0224 5.26749 26.0152C5.36668 25.9965 5.4731 25.9793 5.57084 25.9966C5.90342 26.0569 6.13391 26.3731 6.02889 26.6548C5.85384 27.1233 5.76782 27.6319 5.41628 28.0243L5.44249 28.0329Z" fill="#EF0002"></path>
<path d="M2.90435 51.2245C2.86497 51.3036 2.82415 51.3869 2.78185 51.4703C2.73808 51.4444 2.6826 51.4301 2.65343 51.3927C2.33543 50.9961 2.11517 50.5549 2.07871 50.0433C2.07287 49.9599 2.13998 49.8622 2.19687 49.7889C2.26105 49.7084 2.52216 49.8119 2.56446 49.9269C2.59947 50.0203 2.64761 50.1094 2.67095 50.2042C2.75263 50.542 2.82558 50.8811 2.90435 51.2245Z" fill="#EF0002"></path>
<path d="M5.41624 28.0214C5.45417 28.0559 5.49501 28.0875 5.52856 28.1249C5.68318 28.3031 6.01428 28.3735 5.93113 28.7011C5.8509 29.0173 5.63644 29.2286 5.31553 29.3105C5.23238 29.332 5.10115 29.309 5.0428 29.2544C4.98592 29.2012 4.97273 29.0762 4.9844 28.9885C4.99753 28.8922 5.05884 28.8032 5.10406 28.7126C5.21638 28.4856 5.33013 28.26 5.44245 28.0344C5.44245 28.0329 5.41624 28.0214 5.41624 28.0214Z" fill="#EF0002"></path>
<path d="M7.44095 47.3171C7.52556 47.3516 7.63784 47.3646 7.69181 47.4263C7.96313 47.7396 8.06523 48.1133 8.01418 48.5185C8.00542 48.5918 7.9165 48.701 7.85086 48.7125C7.77646 48.7254 7.65978 48.6679 7.60726 48.6047C7.34908 48.29 7.20903 47.9264 7.26738 47.5169C7.27759 47.4436 7.37969 47.3832 7.44095 47.3171Z" fill="#EF0002"></path>
<path d="M49.2953 6.29699C48.8635 6.36884 48.4916 6.66345 48.0306 6.62033L48.0569 6.64335C48.0161 6.40336 47.8804 6.16623 48.0132 5.92193C48.0555 5.84289 48.1488 5.73798 48.2203 5.73798C48.4172 5.73654 48.6141 5.7854 48.8111 5.81127C49.1115 5.85007 49.2239 6.05558 49.2764 6.31425L49.2953 6.29699Z" fill="#EF0002"></path>
<path d="M19.78 63.2328C19.6648 63.3291 19.5568 63.434 19.4329 63.5173C19.3059 63.6036 19.0944 63.549 19.0463 63.4254C18.9588 63.1955 18.8669 62.9669 18.8041 62.7298C18.7866 62.6637 18.8479 62.5315 18.9092 62.5027C18.9836 62.4654 19.1192 62.4712 19.1893 62.5157C19.3964 62.6465 19.586 62.8075 19.7829 62.9555L19.7625 62.9238C19.7625 63.0374 19.7625 63.1509 19.7625 63.2644L19.78 63.2328Z" fill="#EF0002"></path>
<path d="M7.37673 37.8237C7.35485 38.0393 7.35187 38.1888 7.31832 38.3296C7.2979 38.4158 7.24248 38.5035 7.17829 38.5696C7.11703 38.6328 6.9814 38.4633 6.95514 38.2434C6.92743 38.0049 6.90847 37.762 6.9216 37.522C6.92451 37.4559 7.04269 37.3567 7.12146 37.3438C7.18856 37.3323 7.32272 37.4041 7.34169 37.4659C7.38399 37.5996 7.37235 37.7505 7.37673 37.8237Z" fill="#EF0002"></path>
<path d="M59.5237 21.6148C59.5164 21.8074 59.5252 22.0043 59.496 22.194C59.4844 22.2702 59.4012 22.3766 59.3312 22.3938C59.251 22.4139 59.1329 22.3722 59.0599 22.3191C58.72 22.069 58.5493 21.7399 58.6237 21.3116L58.6062 21.3274C58.8148 21.3274 59.0249 21.3275 59.2335 21.326L59.2072 21.3045C59.2568 21.4784 59.3706 21.589 59.5456 21.6379L59.5237 21.6148Z" fill="#EF0002"></path>
<path d="M8.65311 44.0808C8.63269 44.1713 8.60934 44.315 8.56849 44.4544C8.55682 44.4961 8.50574 44.5421 8.46344 44.5551C8.42113 44.5666 8.35407 44.5522 8.32198 44.5234C8.03024 44.2719 7.93834 43.9572 8.05795 43.5965C8.08566 43.5132 8.17319 43.4413 8.24905 43.3867C8.34824 43.3134 8.54659 43.4413 8.5816 43.5908C8.59327 43.6382 8.61373 43.6842 8.61956 43.733C8.63269 43.8293 8.63852 43.9284 8.65311 44.0808Z" fill="#EF0002"></path>
<path d="M7.02662 13.9653C6.99599 14.2527 7.05872 14.5631 6.85305 14.8103C6.7947 14.8793 6.69847 14.9253 6.61095 14.9626C6.50738 15.0058 6.34108 14.8419 6.31045 14.6895C6.26815 14.4783 6.31917 14.2814 6.50005 14.1751C6.66343 14.0788 6.86623 14.0486 7.05148 13.9883C7.05002 13.9883 7.02662 13.9653 7.02662 13.9653Z" fill="#EF0002"></path>
<path d="M52.6781 7.84045C52.7686 7.79447 52.8531 7.72256 52.9479 7.70819C53.5124 7.62772 54.0434 7.72692 54.5248 8.03876C54.5598 8.06176 54.5963 8.14657 54.5817 8.16669C54.535 8.23135 54.4693 8.31608 54.4037 8.32183C54.3103 8.33045 54.2111 8.27728 54.1149 8.24998C53.6306 8.10771 53.1463 7.96402 52.662 7.82032L52.6781 7.84045Z" fill="#EF0002"></path>
<path d="M77.4045 32.4993C77.4541 32.5051 77.5183 32.4921 77.5504 32.518C77.8596 32.758 77.8319 33.1748 77.4949 33.3558C77.3855 33.4148 77.3009 33.3716 77.2455 33.261C77.1259 33.0224 77.1302 32.7925 77.2922 32.5755C77.3184 32.541 77.3666 32.5238 77.4045 32.4993Z" fill="#EF0002"></path>
<path d="M8.54805 50.4399C8.90252 50.8063 9.24679 51.18 9.33139 51.7074C9.33722 51.7477 9.30808 51.8267 9.28474 51.831C9.19722 51.8454 9.0513 51.8698 9.02505 51.8281C8.88939 51.6183 8.75079 51.4013 8.6764 51.167C8.60201 50.9299 8.60204 50.6699 8.56849 50.4198L8.54805 50.4399Z" fill="#EF0002"></path>
<path d="M9.53267 26.1963C9.45098 26.2552 9.37802 26.3343 9.28758 26.3644C9.21173 26.3903 9.11545 26.3688 9.03231 26.3487C9.01334 26.3443 8.9988 26.2581 9.0061 26.215C9.05132 25.9635 9.15489 25.7364 9.37369 25.587C9.44225 25.5395 9.54725 25.5453 9.63623 25.5266C9.64936 25.6186 9.6902 25.7178 9.66978 25.8011C9.63623 25.9448 9.56327 26.0784 9.50638 26.2164L9.53267 26.1963Z" fill="#EF0002"></path>
<path d="M53.3389 12.1588C53.3709 12.2551 53.4147 12.35 53.4307 12.4477C53.4584 12.6116 53.3067 12.7567 53.1725 12.7279C52.8531 12.6618 52.6241 12.4793 52.4724 12.2034C52.4549 12.1718 52.4724 12.1042 52.4958 12.0697C52.5191 12.0367 52.5788 12.0022 52.6138 12.0094C52.8647 12.0597 53.1128 12.12 53.3622 12.1775L53.3389 12.1588Z" fill="#EF0002"></path>
<path d="M29.3345 3.43579C29.2834 3.51052 29.2499 3.61399 29.1784 3.65567C28.9932 3.76345 28.7991 3.72032 28.6358 3.60104C28.5745 3.55649 28.5483 3.45592 28.5279 3.37544C28.522 3.35101 28.5818 3.28344 28.6182 3.27769C28.8064 3.24608 28.9961 3.21016 29.1843 3.21591C29.2368 3.21878 29.2834 3.35962 29.3345 3.43579Z" fill="#EF0002"></path>
<path d="M5.82762 50.0418C5.51837 49.7788 5.31126 49.4626 5.30105 49.0473C5.29959 49.0171 5.35792 48.9726 5.39585 48.9597C5.43378 48.9482 5.49648 48.9554 5.5242 48.9812C5.59276 49.0459 5.68468 49.1177 5.69927 49.1997C5.75032 49.4842 5.77366 49.7731 5.80867 50.0605L5.82762 50.0418Z" fill="#EF0002"></path>
<path d="M17.5482 6.29842C17.4592 6.2625 17.36 6.2395 17.2856 6.18489C17.1996 6.12166 17.3075 5.93053 17.4738 5.86586C17.5613 5.83137 17.6693 5.79834 17.7554 5.8199C17.8327 5.83858 17.9347 5.92624 17.945 5.99378C17.9566 6.07138 17.8983 6.18922 17.8312 6.23808C17.7597 6.29125 17.6445 6.28118 17.5482 6.29842Z" fill="#EF0002"></path>
<path d="M3.72126 46.8932C3.63666 46.9636 3.54622 47.0814 3.42952 47.1245C3.30261 47.1705 3.14795 46.9923 3.16691 46.8458C3.18004 46.7523 3.19755 46.6518 3.24277 46.5699C3.28653 46.4922 3.36968 46.3859 3.43679 46.3859C3.50389 46.3859 3.58854 46.4908 3.6323 46.5684C3.67898 46.6489 3.68479 46.7509 3.72126 46.8932Z" fill="#EF0002"></path>
<path d="M8.61376 29.6209C8.54374 29.7488 8.4591 29.9169 8.35991 30.075C8.34386 30.1023 8.26364 30.108 8.21988 30.0965C8.17758 30.085 8.12218 30.0463 8.10905 30.0075C8.04341 29.8034 8.12212 29.618 8.23006 29.4542C8.27528 29.3838 8.38178 29.3521 8.46055 29.3032C8.50285 29.388 8.54374 29.4729 8.61376 29.6209Z" fill="#EF0002"></path>
<path d="M8.89086 47.6505C8.88503 47.7986 8.89963 47.9509 8.86608 48.0917C8.84857 48.1664 8.7523 48.2728 8.68958 48.2742C8.60643 48.2757 8.47804 48.2081 8.44449 48.1363C8.36426 47.9624 8.31177 47.7712 8.28552 47.583C8.27677 47.5169 8.37012 47.4292 8.43139 47.3674C8.45181 47.3473 8.53491 47.3602 8.567 47.3847C8.68516 47.4752 8.7946 47.5787 8.90838 47.6779C8.90984 47.6779 8.89086 47.6505 8.89086 47.6505Z" fill="#EF0002"></path>
<path d="M14.4616 14.2584C14.2472 14.4654 14.0386 14.6795 13.811 14.8707C13.7702 14.9051 13.6418 14.8534 13.5616 14.8203C13.5324 14.8074 13.5018 14.7241 13.5164 14.6939C13.5762 14.5674 13.6316 14.3691 13.7293 14.3418C13.9656 14.2771 14.2253 14.293 14.4762 14.2772L14.4616 14.2584Z" fill="#EF0002"></path>
<path d="M29.3185 62.5315C29.476 62.3332 29.6613 62.4208 29.8232 62.4711C29.8815 62.4898 29.9049 62.6105 29.9457 62.6852C29.864 62.6996 29.7721 62.7456 29.7021 62.7226C29.5694 62.6809 29.4498 62.6005 29.3185 62.5315Z" fill="#EF0002"></path>
<path d="M27.552 62.1521C27.5199 62.1923 27.4965 62.2527 27.4542 62.2685C27.1785 62.372 26.9087 62.1938 26.916 61.9136C26.9174 61.8705 26.9598 61.8086 26.9992 61.79C27.2296 61.6807 27.5564 61.8992 27.552 62.1521Z" fill="#EF0002"></path>
<path d="M6.72617 17.0578C6.83412 16.7043 7.01349 16.3997 7.36649 16.2401C7.44088 16.2071 7.57513 16.2171 7.63494 16.2646C7.67724 16.2976 7.66995 16.4442 7.63202 16.5103C7.58388 16.5922 7.48902 16.6569 7.40004 16.7029C7.17248 16.8222 6.93617 16.9256 6.70424 17.0363L6.72617 17.0578Z" fill="#EF0002"></path>
<path d="M56.4182 14.6019C56.6253 14.6005 56.8325 14.5991 57.0396 14.5976L57.0308 14.5775C57.0746 14.7557 57.1899 14.8635 57.3678 14.9095L57.3489 14.9008C57.451 15.1006 57.553 15.3003 57.6551 15.5001L57.6742 15.4799C57.0936 15.4038 56.6559 15.1379 56.443 14.5746L56.4182 14.6019Z" fill="#EF0002"></path>
<path d="M40.32 11.5251C40.1362 11.5265 39.983 11.4072 40.0428 11.3038C40.088 11.2276 40.1566 11.1285 40.2295 11.1127C40.3579 11.0854 40.4979 11.1098 40.6321 11.1285C40.6642 11.1328 40.6963 11.196 40.7123 11.2391C40.7546 11.3498 40.7138 11.4346 40.5986 11.4676C40.5082 11.4949 40.4133 11.5064 40.32 11.5251Z" fill="#EF0002"></path>
<path d="M53.3637 12.1761C53.2397 11.9649 53.1171 11.755 52.9931 11.5452C52.9931 11.5452 52.9742 11.5725 52.9728 11.5725C53.1055 11.5093 53.2338 11.4259 53.3753 11.3871C53.4526 11.3656 53.5781 11.3943 53.632 11.4475C53.6889 11.5035 53.7327 11.6444 53.6992 11.7004C53.6 11.8657 53.4614 12.0051 53.3389 12.156C53.3389 12.1588 53.3637 12.1761 53.3637 12.1761Z" fill="#EF0002"></path>
<path d="M7.65678 43.5993C7.65678 43.7143 7.68007 43.8207 7.64944 43.9098C7.62464 43.9845 7.53717 44.0391 7.47736 44.1023C7.44381 44.0664 7.38398 44.0334 7.38106 43.996C7.36793 43.802 7.36355 43.608 7.36938 43.4125C7.37084 43.3737 7.4234 43.3364 7.45257 43.2976C7.51238 43.3551 7.58093 43.4053 7.62907 43.47C7.65533 43.5074 7.65094 43.5663 7.65678 43.5993Z" fill="#EF0002"></path>
<path d="M10.4371 9.68852C10.5728 9.552 10.6968 9.39966 10.8499 9.28469C10.9987 9.17403 11.2437 9.31775 11.2714 9.53906C11.2802 9.60947 11.1839 9.76037 11.1402 9.7575C10.898 9.746 10.6573 9.69859 10.4167 9.6641L10.4371 9.68852Z" fill="#EF0002"></path>
<path d="M25.0547 61.1102C25.3144 61.07 25.5696 61.0757 25.7738 61.2597C25.8307 61.3114 25.8731 61.4537 25.841 61.5069C25.8074 61.5629 25.6644 61.6032 25.5915 61.5816C25.3377 61.5083 25.1364 61.3617 25.0752 61.0844L25.0547 61.1102Z" fill="#EF0002"></path>
<path d="M67.0054 62.3332C67.1104 61.7756 67.4576 61.3962 67.9302 61.1073L67.9054 61.0858C67.866 61.6879 67.5437 62.0874 66.9894 62.3174L67.0054 62.3332Z" fill="#EF0002"></path>
<path d="M1.05915 43.6611C1.03143 43.7502 1.02707 43.8637 0.967268 43.9227C0.913296 43.9758 0.800942 43.973 0.71342 43.9945C0.698833 43.9112 0.652192 43.8163 0.678448 43.7488C0.71054 43.6654 0.798002 43.5994 0.872396 43.5376C0.897193 43.5174 0.965764 43.5203 0.993479 43.5404C1.02703 43.5663 1.03873 43.6195 1.05915 43.6611Z" fill="#EF0002"></path>
<path d="M25.0737 61.0858C25.027 61.0944 24.9788 61.1016 24.9321 61.1102C24.3793 61.2237 23.9986 61.0355 23.8221 60.4923L23.809 60.5038C24.2903 60.5728 24.7133 60.7596 25.0532 61.1102C25.0547 61.1102 25.0737 61.0858 25.0737 61.0858Z" fill="#EF0002"></path>
<path d="M58.9344 10.9086C59.1226 11.0537 59.3196 11.1903 59.4917 11.3512C59.5267 11.3843 59.4742 11.5107 59.4611 11.5927C59.3765 11.574 59.2743 11.5783 59.2116 11.5323C58.9971 11.3728 59.019 11.1112 58.9549 10.887L58.9344 10.9086Z" fill="#EF0002"></path>
<path d="M9.56185 11.4374C9.45536 11.3857 9.40721 11.2951 9.47431 11.2017C9.556 11.0896 9.66391 10.9963 9.77039 10.9043C9.79957 10.8799 9.89733 10.877 9.90608 10.8928C9.94692 10.9689 10.0126 11.0738 9.98777 11.1356C9.88566 11.3986 9.75148 11.4791 9.56185 11.4374Z" fill="#EF0002"></path>
<path d="M75.0414 29.9111C75.1858 29.8982 75.3317 29.8666 75.4717 29.8824C75.5432 29.891 75.6496 29.9773 75.6584 30.0405C75.6686 30.108 75.6015 30.2216 75.5359 30.2561C75.4659 30.2934 75.3185 30.2963 75.2748 30.2503C75.18 30.1511 75.1289 30.0103 75.0604 29.8867C75.0618 29.8881 75.0414 29.9111 75.0414 29.9111Z" fill="#EF0002"></path>
<path d="M59.0409 12.6345C59.1211 12.6863 59.2233 12.7237 59.2729 12.7955C59.3108 12.8516 59.2889 12.9521 59.2743 13.0311C59.2714 13.0484 59.1868 13.0657 59.1445 13.0585C58.9855 13.0312 58.8936 12.9263 58.863 12.7754C58.8557 12.7394 58.8805 12.682 58.9096 12.659C58.9403 12.6345 58.9957 12.6403 59.0409 12.6345Z" fill="#EF0002"></path>
<path d="M15.7905 58.0823C15.8605 58.1455 15.9378 58.203 15.9976 58.2763C16.0151 58.2979 15.983 58.3596 15.9728 58.4013C15.8882 58.3812 15.7964 58.3754 15.719 58.3381C15.6067 58.2835 15.5848 58.1901 15.6592 58.1082C15.6811 58.0809 15.7453 58.0895 15.7905 58.0823Z" fill="#EF0002"></path>
<path d="M64.0137 34.1376C64.0443 34.1534 64.0968 34.1663 64.0997 34.1864C64.1128 34.2856 64.1186 34.3876 64.1128 34.4882C64.1113 34.517 64.0589 34.5429 64.0297 34.5687C64.0253 34.425 64.0195 34.2813 64.0137 34.1376Z" fill="#EF0002"></path>
<path d="M8.59036 54.3803C8.76103 54.56 8.93461 54.7382 9.09798 54.9236C9.12278 54.9523 9.11698 55.0285 9.09656 55.0673C9.03238 55.188 8.92734 55.1952 8.86899 55.0658C8.76543 54.8402 8.69099 54.6031 8.60347 54.3703L8.59036 54.3803Z" fill="#EF0002"></path>
<path d="M73.5798 24.4229C73.3858 24.1987 73.1335 23.9961 73.2487 23.6455C73.2618 23.6052 73.3071 23.5578 73.3464 23.5463C73.3887 23.5348 73.4587 23.5463 73.4879 23.575C73.7417 23.8323 73.6833 24.1183 73.555 24.41C73.555 24.4086 73.5798 24.4229 73.5798 24.4229Z" fill="#EF0002"></path>
<path d="M4.23319 43.6755C4.43157 43.8466 4.53223 44.0678 4.52785 44.3236C4.52639 44.3926 4.43161 44.4588 4.38056 44.5278C4.30908 44.4732 4.2026 44.4343 4.17051 44.3639C4.05965 44.1196 4.14864 43.8853 4.25221 43.6583L4.23319 43.6755Z" fill="#EF0002"></path>
<path d="M56.1206 9.08492C56.5144 9.16252 56.8077 9.37667 57.0031 9.72157L57.0235 9.70144C56.6705 9.57066 56.319 9.43703 56.1367 9.07201L56.1206 9.08492Z" fill="#EF0002"></path>
<path d="M58.9563 10.887C58.5245 10.8712 58.1964 10.6901 57.9965 10.3036L57.9775 10.3223C58.3889 10.3712 58.6515 10.6542 58.933 10.9086C58.9345 10.9086 58.9563 10.887 58.9563 10.887Z" fill="#EF0002"></path>
<path d="M4.12239 58.6701C4.20262 58.7117 4.31784 58.7347 4.35722 58.7994C4.41849 58.9057 4.34848 58.9834 4.2172 58.9747C4.09466 58.9675 4.02903 58.8971 4.04362 58.7807C4.04654 58.7419 4.09468 58.706 4.12239 58.6701Z" fill="#EF0002"></path>
<path d="M3.21364 45.2865C3.18447 45.2923 3.15671 45.298 3.12753 45.3038C3.12607 45.2563 3.12024 45.2089 3.12753 45.1643C3.12899 45.1557 3.17859 45.1528 3.20631 45.1471C3.20923 45.1931 3.21073 45.2405 3.21364 45.2865Z" fill="#EF0002"></path>
<path d="M73.2238 20.3761C73.1276 20.3948 73.0313 20.4235 72.9336 20.4278C72.8957 20.4293 72.8169 20.3674 72.8198 20.3545C72.8475 20.2712 72.8855 20.1878 72.9365 20.116C72.9482 20.0987 73.0488 20.1103 73.0678 20.1361C73.1232 20.2137 73.1597 20.3057 73.2035 20.3919L73.2238 20.3761Z" fill="#EF0002"></path>
<path d="M7.69178 20.984C7.49631 20.9754 7.29793 20.9869 7.1083 20.9481C6.99889 20.9266 6.97995 20.8044 7.04996 20.7153C7.0733 20.6851 7.15355 20.6635 7.18273 20.6808C7.35048 20.7814 7.51092 20.8949 7.67283 21.0041L7.69178 20.984Z" fill="#EF0002"></path>
<path d="M47.0913 12.4305C47.0942 12.5268 47.1044 12.6245 47.0956 12.7208C47.0927 12.7581 47.0518 12.8128 47.0183 12.8228C46.9804 12.8343 46.922 12.8142 46.8855 12.7898C46.7849 12.7222 46.7601 12.6231 46.8462 12.5555C46.9177 12.4995 47.0241 12.4851 47.1146 12.4534C47.1146 12.452 47.0913 12.4305 47.0913 12.4305Z" fill="#EF0002"></path>
<path d="M14.7767 13.0599C14.6906 13.1691 14.6177 13.2927 14.5127 13.3804C14.4674 13.4177 14.3566 13.3833 14.2763 13.3703C14.269 13.3689 14.2603 13.2855 14.2778 13.2525C14.2968 13.2165 14.342 13.1835 14.3814 13.172C14.5171 13.1346 14.6556 13.1074 14.7927 13.0772C14.7942 13.0772 14.7767 13.0599 14.7767 13.0599Z" fill="#EF0002"></path>
<path d="M12.9402 59.5884C13.0481 59.6832 13.1663 59.7694 13.2597 59.8772C13.3035 59.9275 13.2946 60.0195 13.3107 60.0927C13.2669 60.0884 13.2174 60.0942 13.1809 60.0756C13.1401 60.0554 13.0963 60.018 13.0817 59.9778C13.0336 59.8442 13 59.7062 12.9592 59.5697L12.9402 59.5884Z" fill="#EF0002"></path>
<path d="M52.3499 14.3231C52.4841 14.2685 52.6183 14.2139 52.751 14.1579C52.8648 14.1105 52.9436 14.1363 52.9596 14.2455C52.9654 14.2815 52.929 14.3332 52.8969 14.3619C52.8634 14.3921 52.8079 14.428 52.7714 14.4194C52.6343 14.3878 52.5016 14.3404 52.3659 14.3001C52.3659 14.303 52.3499 14.3231 52.3499 14.3231Z" fill="#EF0002"></path>
<path d="M74.2858 22.2961C74.366 22.2817 74.4638 22.2343 74.5192 22.2644C74.5776 22.2946 74.6374 22.4096 74.6228 22.47C74.598 22.5706 74.4842 22.5907 74.401 22.513C74.3442 22.4599 74.3237 22.3708 74.2858 22.2961Z" fill="#EF0002"></path>
<path d="M5.81593 15.3708C5.82468 15.4412 5.83488 15.5116 5.83488 15.5834C5.83488 15.5892 5.75756 15.5949 5.71671 15.5992C5.70942 15.5288 5.69926 15.457 5.69926 15.3865C5.69781 15.3808 5.77509 15.3751 5.81593 15.3708Z" fill="#EF0002"></path>
<path d="M1.90659 29.4025C1.88471 29.3622 1.85117 29.3234 1.84242 29.2803C1.83513 29.2358 1.83511 29.1581 1.86137 29.1438C1.9591 29.0877 2.0072 29.1452 1.97511 29.2875C1.9649 29.3277 1.92993 29.3637 1.90659 29.4025Z" fill="#EF0002"></path>
<path d="M23.5537 1.50002C23.4866 1.55894 23.4151 1.61783 23.3363 1.65376C23.3086 1.66669 23.2386 1.63078 23.2138 1.59917C23.1948 1.5733 23.2021 1.48994 23.2211 1.47988C23.3057 1.43964 23.399 1.41236 23.4909 1.39655C23.5055 1.39368 23.5595 1.49427 23.5537 1.50002Z" fill="#EF0002"></path>
<path d="M12.1656 61.1936C12.0913 61.1994 12.0168 61.2137 11.9453 61.2036C11.922 61.2008 11.8928 61.1332 11.8943 61.0959C11.8972 60.9924 11.973 60.9349 12.062 60.9881C12.1174 61.0211 12.1321 61.1218 12.1656 61.1936Z" fill="#EF0002"></path>
<path d="M69.9827 17.4531C69.9608 17.4904 69.9389 17.5263 69.917 17.5637C69.8674 17.4962 69.8105 17.4329 69.774 17.3597C69.7653 17.341 69.8149 17.2936 69.8382 17.2591C69.8864 17.3223 69.9345 17.3869 69.9827 17.4531Z" fill="#EF0002"></path>
<path d="M24.8986 5.56554C24.9365 5.58997 25.0123 5.62302 25.008 5.63596C24.9861 5.71931 24.9671 5.82995 24.9073 5.87018C24.8023 5.9406 24.6987 5.87736 24.7221 5.75665C24.7352 5.68479 24.8373 5.62877 24.8986 5.56554Z" fill="#EF0002"></path>
<path d="M4.11797 35.431C4.17194 35.3749 4.22596 35.3189 4.27993 35.2629C4.32078 35.3246 4.37034 35.385 4.3966 35.4525C4.40389 35.4712 4.35137 35.5345 4.3149 35.546C4.20842 35.5805 4.13985 35.5345 4.11797 35.431Z" fill="#EF0002"></path>
<path d="M26.1152 6.72812C26.0262 6.79854 25.9415 6.78847 25.8803 6.685C25.8628 6.65482 25.8715 6.58154 25.8978 6.55568C25.978 6.47807 26.0699 6.49245 26.1312 6.59448C26.1502 6.62753 26.1225 6.68357 26.1152 6.72812Z" fill="#EF0002"></path>
<path d="M8.26365 60.4952C8.58894 60.7237 8.77852 61.0399 8.87334 61.4164L8.89228 61.3991C8.59179 61.1534 8.35845 60.8659 8.28551 60.475C8.28697 60.475 8.26365 60.4952 8.26365 60.4952Z" fill="#EF0002"></path>
<path d="M21.9491 65.0794C21.9448 64.9832 21.9346 64.8869 21.9389 64.792C21.9404 64.7475 21.9593 64.6885 21.9899 64.667C22.0191 64.6469 22.1081 64.6555 22.1169 64.6727C22.1504 64.7503 22.2044 64.8596 22.1738 64.9142C22.1344 64.9846 22.0191 65.0162 21.9375 65.0637L21.9491 65.0794Z" fill="#EF0002"></path>
<path d="M49.2764 6.31425C49.342 6.42347 49.4077 6.5327 49.4733 6.64191C49.4427 6.61748 49.3975 6.60024 49.3844 6.56862C49.3479 6.48096 49.3245 6.38753 49.2953 6.29699L49.2764 6.31425Z" fill="#EF0002"></path>
<path d="M29.0792 6.79854C29.0077 6.8359 28.9348 6.90632 28.8663 6.90201C28.7569 6.89482 28.7117 6.79279 28.7831 6.72956C28.8342 6.68501 28.9407 6.6922 29.0209 6.6922C29.0428 6.6922 29.0603 6.76118 29.0792 6.79854Z" fill="#EF0002"></path>
<path d="M23.1759 8.43537C23.084 8.51585 23.0023 8.50726 22.9556 8.39804C22.941 8.36355 22.9557 8.29746 22.9819 8.27159C23.0607 8.19399 23.1511 8.20692 23.2095 8.30752C23.227 8.33339 23.1891 8.39226 23.1759 8.43537Z" fill="#EF0002"></path>
<path d="M15.8911 10.3093C15.8751 10.3467 15.8678 10.4028 15.8386 10.4171C15.8153 10.4301 15.7657 10.3942 15.7278 10.3798C15.7438 10.3424 15.7511 10.2864 15.7803 10.272C15.8036 10.2591 15.8532 10.295 15.8911 10.3093Z" fill="#EF0002"></path>
<path d="M21.335 10.9143C21.2461 10.8425 21.0783 10.8497 21.0885 10.6758C21.125 10.683 21.1819 10.6772 21.195 10.6988C21.2432 10.7721 21.2753 10.854 21.3132 10.9331C21.3146 10.9345 21.335 10.9143 21.335 10.9143Z" fill="#EF0002"></path>
<path d="M8.56992 50.4212C8.51886 50.3422 8.46343 50.266 8.42113 50.1826C8.40216 50.1438 8.38906 50.0691 8.41094 50.0504C8.49263 49.9743 8.54809 50.0174 8.55247 50.1582C8.55538 50.2516 8.55243 50.3465 8.55097 50.4399C8.54805 50.4399 8.56992 50.4212 8.56992 50.4212Z" fill="#EF0002"></path>
<path d="M5.80715 50.0605C5.85675 50.1439 5.91072 50.2258 5.95302 50.3134C5.97344 50.3551 5.99093 50.4313 5.97197 50.45C5.88736 50.5247 5.83193 50.4787 5.82902 50.335C5.82756 50.2373 5.82756 50.141 5.82902 50.0433C5.82756 50.0418 5.80715 50.0605 5.80715 50.0605Z" fill="#EF0002"></path>
<path d="M4.13406 16.6469L4.22594 16.6368L4.18364 16.7173L4.13406 16.6469Z" fill="#EF0002"></path>
<path d="M8.57865 17.6356C8.54073 17.7189 8.52322 17.8224 8.46049 17.8784C8.4109 17.9244 8.30738 17.9129 8.22716 17.9259C8.22716 17.8856 8.21396 17.8382 8.23001 17.8066C8.24897 17.7692 8.28988 17.729 8.33072 17.7161C8.41824 17.6887 8.513 17.6772 8.60344 17.66C8.60344 17.6614 8.57865 17.6356 8.57865 17.6356Z" fill="#EF0002"></path>
<path d="M0.79943 45.5265C0.755669 45.4359 0.707584 45.3468 0.669658 45.2534C0.652153 45.2089 0.634634 45.1269 0.655056 45.1111C0.749872 45.0407 0.802379 45.0925 0.795086 45.2419C0.789251 45.3425 0.786291 45.4431 0.780457 45.5452L0.79943 45.5265Z" fill="#EF0002"></path>
<path d="M3.29381 23.7719C3.2238 24.0795 3.2238 24.4143 2.96853 24.6557L2.99039 24.673C3.09396 24.3755 3.19901 24.078 3.30258 23.7806L3.29381 23.7719Z" fill="#EF0002"></path>
<path d="M2.96711 24.6557C2.96565 24.7535 2.97002 24.8527 2.96127 24.9504C2.9569 24.9964 2.93204 25.074 2.90579 25.0797C2.79493 25.1027 2.74826 25.0265 2.80807 24.9029C2.84891 24.8182 2.92771 24.7506 2.98898 24.6744C2.98898 24.673 2.96711 24.6557 2.96711 24.6557Z" fill="#EF0002"></path>
<path d="M6.37752 24.8699L6.38044 24.969L6.29583 24.9345L6.37752 24.8699Z" fill="#EF0002"></path>
<path d="M2.5718 26.3702L2.50613 26.4219L2.50756 26.317L2.5718 26.3702Z" fill="#EF0002"></path>
<path d="M77.3593 31.6472C77.2513 31.6385 77.2003 31.5811 77.2309 31.4819C77.2411 31.4503 77.3199 31.4086 77.3257 31.4129C77.3768 31.4632 77.4176 31.5221 77.4628 31.5782C77.4278 31.6012 77.3943 31.6242 77.3593 31.6472Z" fill="#EF0002"></path>
<path d="M3.16256 34.507C3.18007 34.5458 3.21651 34.586 3.21214 34.6219C3.20776 34.6564 3.164 34.6866 3.13628 34.7182C3.11878 34.6794 3.08376 34.6391 3.08813 34.6018C3.09105 34.5687 3.13631 34.5386 3.16256 34.507Z" fill="#EF0002"></path>
<path d="M0.077412 38.5724L0.0452892 38.6745L6.10352e-05 38.5912L0.077412 38.5724Z" fill="#EF0002"></path>
<path d="M32.0389 62.7557L32.1075 62.8247L31.9704 62.8218L32.0389 62.7557Z" fill="#EF0002"></path>
<path d="M12.3494 55.0285C12.2196 55.0716 12.0927 55.1205 11.96 55.1521C11.9293 55.1593 11.8652 55.1161 11.8506 55.0831C11.8068 54.9739 11.8608 54.8891 11.9775 54.9107C12.1102 54.9351 12.2356 55.0012 12.3655 55.0515C12.3669 55.0515 12.3494 55.0285 12.3494 55.0285Z" fill="#EF0002"></path>
<path d="M42.3082 1.45546C42.4205 1.43965 42.4818 1.48275 42.4672 1.58335C42.4628 1.61209 42.4118 1.64802 42.3767 1.65664C42.2644 1.68394 42.2017 1.63654 42.2177 1.53307C42.2221 1.50289 42.2761 1.48133 42.3082 1.45546Z" fill="#EF0002"></path>
<path d="M23.4531 4.58256C23.4749 4.54088 23.4866 4.4762 23.5202 4.46183C23.5493 4.44889 23.6048 4.49058 23.6471 4.50782C23.6267 4.55094 23.615 4.61562 23.5814 4.62855C23.5522 4.64149 23.4983 4.5998 23.4531 4.58256Z" fill="#EF0002"></path>
<path d="M16.0589 6.43067C16.0969 6.45222 16.1537 6.46659 16.1654 6.49677C16.1771 6.52551 16.1406 6.60599 16.1245 6.60599C16.0472 6.60742 15.9714 6.59015 15.894 6.58009C15.9072 6.54129 15.9087 6.48959 15.9349 6.46659C15.9641 6.44073 16.0166 6.44073 16.0589 6.43067Z" fill="#EF0002"></path>
<path d="M76.4651 33.7582C76.4213 33.7697 76.3776 33.7826 76.3338 33.7941C76.3236 33.7553 76.2959 33.695 76.309 33.6835C76.3411 33.6562 76.3936 33.6533 76.4374 33.639C76.4461 33.6778 76.4563 33.718 76.4651 33.7582Z" fill="#EF0002"></path>
<path d="M3.92687 48.2397C3.89332 48.2066 3.85978 48.1736 3.82623 48.1405C3.85394 48.1779 3.88313 48.2167 3.91084 48.2541L3.92687 48.2397Z" fill="#EF0002"></path>
<path d="M46.8126 56.822C46.8797 56.7688 46.9469 56.7156 47.014 56.661C47.0256 56.6883 47.0373 56.7156 47.0504 56.7415C46.9644 56.7616 46.8797 56.7817 46.7937 56.8018L46.8126 56.822Z" fill="#EF0002"></path>
<path d="M9.50789 26.2179C9.56186 26.2811 9.61581 26.3429 9.66978 26.4061C9.44514 26.4521 9.57935 26.2667 9.53267 26.1977C9.53267 26.1963 9.50789 26.2179 9.50789 26.2179Z" fill="#EF0002"></path>
<path d="M3.90789 21.9095C3.87289 21.9857 3.83934 22.0618 3.80433 22.138C3.80725 22.0992 3.79563 22.0517 3.81459 22.0244C3.8423 21.9856 3.89186 21.9612 3.93271 21.9296L3.90789 21.9095Z" fill="#EF0002"></path>
<path d="M73.202 20.3919C73.2997 20.5989 73.3989 20.8058 73.4966 21.0127L73.5171 20.994C73.4091 20.9955 73.3026 20.997 73.1947 20.9984L73.2151 21.0185C73.218 20.8043 73.2209 20.5902 73.2238 20.3761L73.202 20.3919Z" fill="#EF0002"></path>
<path d="M11.7324 15.4756C11.6566 15.4498 11.5822 15.4253 11.5063 15.3994C11.5399 15.4009 11.5807 15.3908 11.607 15.4052C11.6464 15.4268 11.677 15.4656 11.712 15.4958C11.712 15.4972 11.7324 15.4756 11.7324 15.4756Z" fill="#EF0002"></path>
<path d="M7.32276 53.7912C7.42778 53.9852 7.53134 54.1807 7.63636 54.3747L7.65097 54.3632C7.54886 54.1663 7.44673 53.9694 7.34462 53.7739L7.32276 53.7912Z" fill="#EF0002"></path>
<path d="M8.26368 12.7466C8.26076 12.9535 8.25784 13.1605 8.25492 13.366L8.26803 13.3617C8.01421 13.0269 8.01423 13.0269 8.28263 12.7639L8.26368 12.7466Z" fill="#EF0002"></path>
<path d="M18.1842 12.429C18.1857 12.6489 18.1871 12.8702 18.1886 13.0901C18.1886 13.0901 18.2105 13.0714 18.2105 13.0728C17.9975 12.9119 17.9275 12.6863 17.9129 12.4348L17.8911 12.4578C17.9946 12.4549 18.0982 12.4521 18.2017 12.4478L18.1842 12.429Z" fill="#EF0002"></path>
<path d="M18.2032 12.4478C18.2411 12.4161 18.2776 12.3845 18.3155 12.3543C18.2717 12.3802 18.2294 12.4046 18.1857 12.429C18.1842 12.429 18.2032 12.4478 18.2032 12.4478Z" fill="#EF0002"></path>
<path d="M7.3432 53.7725C7.13898 53.6216 7.09516 53.3902 7.02952 53.1689L7.01207 53.1876C7.18858 53.3514 7.3096 53.544 7.32418 53.7897C7.32272 53.7912 7.3432 53.7725 7.3432 53.7725Z" fill="#EF0002"></path>
<path d="M38.7242 11.5381C38.765 11.4662 38.8029 11.39 38.8525 11.3239C38.8598 11.3138 38.9576 11.3412 38.9576 11.3556C38.9678 11.5567 38.8263 11.5223 38.7008 11.5108C38.6993 11.5093 38.7242 11.5381 38.7242 11.5381Z" fill="#EF0002"></path>
<path d="M57.6727 9.97019C57.4568 9.87965 57.2409 9.79057 57.025 9.70003C57.025 9.70003 57.0046 9.72014 57.0031 9.72157C57.219 9.81067 57.4364 9.90123 57.6537 9.99033L57.6727 9.97019Z" fill="#EF0002"></path>
<path d="M24.9336 7.48546L24.8855 7.56163L24.8505 7.47971L24.9336 7.48546Z" fill="#EF0002"></path>
<path d="M7.02951 53.1703C6.95657 53.1143 7.03102 53.1934 7.01206 53.1891L7.02951 53.1703Z" fill="#EF0002"></path>
<path d="M27.3871 3.50475L27.4207 3.59527L27.3317 3.58236L27.3871 3.50475Z" fill="#EF0002"></path>
<path d="M9.19136 61.7239C9.09217 61.6161 8.99148 61.5069 8.89228 61.3991L8.87334 61.4164C8.97253 61.527 9.07173 61.6376 9.17092 61.7469C9.17238 61.7469 9.19136 61.7239 9.19136 61.7239Z" fill="#EF0002"></path>
<path d="M9.51807 62.0141C9.41013 61.9164 9.30073 61.8202 9.19278 61.7225C9.19278 61.7225 9.17241 61.7454 9.17241 61.7469C9.29203 61.7397 9.41164 61.731 9.53125 61.7239L9.50789 61.7023C9.50789 61.813 9.50639 61.925 9.50639 62.0357L9.51807 62.0141Z" fill="#EF0002"></path>
<path d="M9.84485 62.3361C9.73545 62.2283 9.62747 62.1219 9.51807 62.0141L9.50639 62.0343C9.61871 62.0328 9.73108 62.0328 9.84485 62.0314L9.82299 62.0055C9.82299 62.1205 9.82149 62.234 9.82149 62.349C9.82003 62.349 9.84485 62.3361 9.84485 62.3361Z" fill="#EF0002"></path>
<path d="M57.9965 10.305C57.8886 10.1929 57.7806 10.0823 57.6727 9.97019L57.6522 9.99033C57.7602 10.101 57.8681 10.213 57.9775 10.3237L57.9965 10.305Z" fill="#EF0002"></path>
<path d="M7.65239 11.8183C7.54736 11.9203 7.44239 12.0238 7.33736 12.1258L7.35631 12.1445C7.45987 12.041 7.56342 11.9375 7.66699 11.8326C7.66699 11.8341 7.65239 11.8183 7.65239 11.8183Z" fill="#EF0002"></path>
<path d="M66.9894 62.3188C66.8858 62.418 66.7837 62.5171 66.6801 62.6163L66.6991 62.6364C66.8012 62.5358 66.9033 62.4352 67.004 62.3346C67.0054 62.3332 66.9894 62.3188 66.9894 62.3188Z" fill="#EF0002"></path>
<path d="M7.03244 12.4463C7.08058 12.2839 7.19439 12.189 7.35631 12.1445L7.33736 12.1258C7.29652 12.2896 7.20023 12.4003 7.03102 12.4449L7.03244 12.4463Z" fill="#EF0002"></path>
<path d="M66.3811 62.944C66.4876 62.8419 66.5926 62.7384 66.6991 62.6364L66.6801 62.6163C66.5751 62.7197 66.47 62.8232 66.365 62.9281L66.3811 62.944Z" fill="#EF0002"></path>
<path d="M8.2811 12.7654L8.26365 12.7481C8.26365 12.7467 8.2811 12.7654 8.2811 12.7654Z" fill="#EF0002"></path>
<path d="M22.2409 12.4175C22.2409 12.4175 22.2554 12.4348 22.254 12.4348C22.2525 12.4348 22.2409 12.4175 22.2409 12.4175Z" fill="#EF0002"></path>
<path d="M15.1079 12.7323C14.997 12.8415 14.8876 12.9507 14.7767 13.0599C14.7767 13.0599 14.7942 13.0771 14.7942 13.0786C14.9036 12.9694 15.013 12.8587 15.1239 12.7495C15.1239 12.748 15.1079 12.7323 15.1079 12.7323Z" fill="#EF0002"></path>
<path d="M23.4968 12.738L23.5157 12.7567C23.5157 12.7581 23.4968 12.738 23.4968 12.738Z" fill="#EF0002"></path>
<path d="M56.4123 13.6678L56.424 13.6578C56.4225 13.6578 56.4123 13.6678 56.4123 13.6678Z" fill="#EF0002"></path>
<path d="M14.4762 14.2785C14.5871 14.1866 14.6965 14.1823 14.8044 14.2843C14.8044 14.2843 14.822 14.2627 14.822 14.2613C14.7023 14.2598 14.5813 14.2598 14.4602 14.2584C14.4617 14.2584 14.4762 14.2785 14.4762 14.2785Z" fill="#EF0002"></path>
<path d="M64.1989 13.9667C64.0895 13.9667 63.9801 13.9667 63.8707 13.9667L63.8604 13.9825C63.9786 13.9825 64.0968 13.984 64.2149 13.984L64.1989 13.9667Z" fill="#EF0002"></path>
<path d="M5.46434 14.2584L5.43664 14.3375L5.48628 14.2772L5.46434 14.2584Z" fill="#EF0002"></path>
<path d="M56.443 14.5746L56.3438 14.5258L56.4182 14.6019L56.443 14.5746Z" fill="#EF0002"></path>
<path d="M57.0396 14.5961C57.1432 14.5918 57.2453 14.589 57.3489 14.5846L57.3692 14.576C57.2569 14.576 57.1446 14.576 57.0323 14.576L57.0396 14.5961Z" fill="#EF0002"></path>
<path d="M62.3274 14.5746L62.253 14.5056L62.3099 14.5919L62.3274 14.5746Z" fill="#EF0002"></path>
<path d="M57.3489 14.5861C57.3489 14.691 57.3489 14.7959 57.3489 14.9008L57.3678 14.9095C57.3678 14.7988 57.3678 14.6881 57.3678 14.5775C57.3693 14.576 57.3489 14.5861 57.3489 14.5861Z" fill="#EF0002"></path>
<path d="M61.7235 14.8864L61.6622 14.8577L61.7045 14.9066L61.7235 14.8864Z" fill="#EF0002"></path>
<path d="M62.3099 14.5919C62.4178 14.6982 62.5272 14.8045 62.6352 14.9109L62.6527 14.8936C62.5447 14.7873 62.4353 14.6809 62.3259 14.576C62.3274 14.5746 62.3099 14.5919 62.3099 14.5919Z" fill="#EF0002"></path>
<path d="M57.6551 15.5001C57.7602 15.6007 57.8652 15.7027 57.9702 15.8048L57.9878 15.7861C57.8827 15.6841 57.7792 15.5835 57.6742 15.4814C57.6742 15.48 57.6551 15.5001 57.6551 15.5001Z" fill="#EF0002"></path>
<path d="M12.9256 16.1295C13.0292 16.0174 13.1328 15.9053 13.2363 15.7918L13.213 15.7717C13.2232 15.8924 13.2334 16.0131 13.2436 16.1339L13.2655 16.1123C13.1473 16.1123 13.0306 16.1123 12.9125 16.1123L12.9256 16.1295Z" fill="#EF0002"></path>
<path d="M58.2868 16.1108C58.1876 16.0031 58.0884 15.8939 57.9878 15.7861L57.9702 15.8048C58.0694 15.914 58.1686 16.0246 58.2678 16.1339L58.2868 16.1108Z" fill="#EF0002"></path>
<path d="M58.2678 16.1324C58.3831 16.1309 58.4983 16.1309 58.6135 16.1295L58.5888 16.1066C58.5888 16.2158 58.5888 16.3236 58.5888 16.4328L58.6121 16.4169C58.5041 16.3149 58.3962 16.2115 58.2883 16.1094C58.2868 16.1109 58.2678 16.1324 58.2678 16.1324Z" fill="#EF0002"></path>
<path d="M15.121 17.3568C15.1312 17.3194 15.1414 17.2835 15.1502 17.2461C15.2391 17.2763 15.2216 17.3051 15.0962 17.3324L15.121 17.3568Z" fill="#EF0002"></path>
<path d="M57.9746 17.66C58.0738 17.5709 58.1744 17.5566 58.278 17.6514L58.3014 17.6356C58.189 17.6356 58.0753 17.637 57.963 17.637L57.9746 17.66Z" fill="#EF0002"></path>
<path d="M58.278 17.6528C58.3859 17.7577 58.4953 17.8626 58.6033 17.9675L58.6237 17.9489C58.5056 17.9489 58.3874 17.9489 58.2692 17.9489L58.2999 17.9704C58.2999 17.8598 58.3014 17.7477 58.3014 17.637L58.278 17.6528Z" fill="#EF0002"></path>
<path d="M14.167 18.86C14.1655 18.9692 14.164 19.0784 14.164 19.1877L14.183 19.1977C14.183 19.0813 14.183 18.9663 14.183 18.8499L14.167 18.86Z" fill="#EF0002"></path>
<path d="M58.2955 20.9854C58.192 20.8848 58.0869 20.7842 57.9833 20.6836L57.9659 20.7024C58.0695 20.8029 58.1744 20.9035 58.278 21.0056L58.2955 20.9854Z" fill="#EF0002"></path>
<path d="M58.6252 21.3116C58.5158 21.2024 58.4064 21.0946 58.2955 20.9854L58.2766 21.0041C58.386 21.1119 58.4968 21.2196 58.6062 21.3274C58.6077 21.3289 58.6252 21.3116 58.6252 21.3116Z" fill="#EF0002"></path>
<path d="M73.1947 20.9984L73.1567 21.0587L73.2151 21.0185L73.1947 20.9984Z" fill="#EF0002"></path>
<path d="M3.30115 23.7806L3.33178 23.7389L3.29239 23.7719L3.30115 23.7806Z" fill="#EF0002"></path>
<path d="M62.3434 27.4365L62.323 27.4566C62.323 27.4581 62.3434 27.4365 62.3434 27.4365Z" fill="#EF0002"></path>
<path d="M3.91084 48.2541C3.91084 48.2541 3.92687 48.2383 3.92687 48.2397L3.91084 48.2541Z" fill="#EF0002"></path>
<path d="M7.63636 54.3747L7.65097 54.3617C7.65097 54.3631 7.63636 54.3747 7.63636 54.3747Z" fill="#EF0002"></path>
<path d="M11.3677 55.5962L11.41 55.6292L11.375 55.5918L11.3677 55.5962Z" fill="#EF0002"></path>
<path d="M46.7922 56.8018L46.8112 56.822C46.8127 56.822 46.7922 56.8018 46.7922 56.8018Z" fill="#EF0002"></path>
<path d="M51.4513 57.1108L51.4673 57.1267C51.4673 57.1281 51.4513 57.1108 51.4513 57.1108Z" fill="#EF0002"></path>
<path d="M11.9949 58.055C12.097 58.0536 12.1992 58.0521 12.2999 58.0507L12.3246 58.0363C12.2123 58.0378 12.0985 58.0378 11.9862 58.0392L11.9949 58.055Z" fill="#EF0002"></path>
<path d="M12.2999 58.0507C12.4049 58.1513 12.5099 58.2533 12.6149 58.3539L12.6353 58.341C12.5216 58.3424 12.4092 58.3438 12.2954 58.3438L12.3202 58.3668C12.3217 58.2562 12.3217 58.1455 12.3231 58.0349L12.2999 58.0507Z" fill="#EF0002"></path>
<path d="M46.7995 2.66692L46.782 2.64825C46.7805 2.64825 46.7995 2.66692 46.7995 2.66692Z" fill="#EF0002"></path>
<path d="M12.6149 58.3539C12.733 58.4028 12.7783 58.479 12.7272 58.5695C12.7053 58.6083 12.6514 58.6298 12.6105 58.66L12.6324 58.6744C12.6339 58.5637 12.6339 58.4516 12.6353 58.341L12.6149 58.3539Z" fill="#EF0002"></path>
<path d="M54.8748 5.08554L54.8239 5.05105L54.8559 5.10277L54.8748 5.08554Z" fill="#EF0002"></path>
<path d="M12.6076 59.2679C12.7185 59.3757 12.8293 59.482 12.9402 59.5898C12.9402 59.5898 12.9592 59.5711 12.9606 59.5711C12.8498 59.4633 12.7389 59.357 12.6281 59.2492C12.6266 59.2478 12.6076 59.2679 12.6076 59.2679Z" fill="#EF0002"></path>
<path d="M16.3681 60.1761L16.2748 60.1258L16.3434 60.202L16.3681 60.1761Z" fill="#EF0002"></path>
<path d="M55.1973 5.40313C55.0893 5.29679 54.9828 5.19045 54.8748 5.0841C54.8748 5.0841 54.8574 5.10137 54.8559 5.10137C54.9638 5.20771 55.0703 5.31405 55.1783 5.41895C55.1797 5.42183 55.1973 5.40313 55.1973 5.40313Z" fill="#EF0002"></path>
<path d="M62.0312 19.1646C61.9175 19.2753 61.8051 19.3874 61.6913 19.4995C61.8051 19.3874 61.9175 19.2767 62.0312 19.1646Z" fill="#EF0002"></path>
<path d="M12.3071 18.551C12.3071 18.551 12.329 18.5726 12.329 18.574C12.329 18.5755 12.3071 18.551 12.3071 18.551Z" fill="#EF0002"></path>
</svg>
